<?xml version="1.0" encoding="UTF-8" standalone="no"?>
<!DOCTYPE svg PUBLIC "-//W3C//DTD SVG 1.1//EN" "http://www.w3.org/Graphics/SVG/1.1/DTD/svg11.dtd">
<svg width="100%" height="100%" viewBox="0 0 1800 1201" version="1.1" xmlns="http://www.w3.org/2000/svg" xmlns:xlink="http://www.w3.org/1999/xlink" xml:space="preserve" xmlns:serif="http://www.serif.com/" style="fill-rule:evenodd;clip-rule:evenodd;stroke-linejoin:round;stroke-miterlimit:2;">
    <g id="Nature">
        <g id="Ground" transform="matrix(1,0,0,1,51,-13)">
            <ellipse cx="851.61" cy="925.78" rx="480.47" ry="43.83" style="fill:rgb(227,229,252);"/>
        </g>
        <g id="Plant_3_" transform="matrix(1,0,0,1,51,-13)">
            <path d="M949.02,845.51C955.92,845.02 961.15,837.91 966.5,832.4C971.85,826.89 979.88,822.69 985.34,828.05C992.18,834.77 989,850.79 996.1,857.06C1014.72,856.44 1052.4,844.49 1063.98,859.29C1093.18,896.59 1088.15,872.49 1105.53,880.98C1106.85,881.63 1108.28,882.4 1108.94,883.98C1110.64,888.02 1106.16,891.65 1102.62,892.63C1067.59,902.33 1031.87,897.66 996.64,894.87C979.27,893.49 962.38,890.25 945.1,892.63C932.51,894.37 918.51,900.01 906.61,892.28C892.67,883.22 882.43,853.67 891.01,835.39C908.43,798.3 930.59,846.82 949.02,845.51Z" style="fill:rgb(253,197,16);fill-rule:nonzero;"/>
            <g>
                <path d="M953.51,883.27C953.15,883.27 952.79,883.17 952.47,882.95C951.61,882.38 951.38,881.21 951.95,880.35L975.07,845.8C975.64,844.94 976.8,844.71 977.67,845.28C978.53,845.85 978.76,847.02 978.19,847.88L955.07,882.43C954.71,882.98 954.12,883.27 953.51,883.27Z" style="fill:white;fill-rule:nonzero;"/>
            </g>
            <g>
                <path d="M1017.21,915.94C1016.9,915.94 1016.58,915.86 1016.29,915.7C1015.39,915.19 1015.07,914.05 1015.58,913.15L1043.06,864.38C1043.57,863.48 1044.72,863.16 1045.61,863.67C1046.51,864.18 1046.83,865.32 1046.32,866.22L1018.84,914.99C1018.5,915.6 1017.87,915.94 1017.21,915.94Z" style="fill:white;fill-rule:nonzero;"/>
            </g>
            <g>
                <path d="M1035.62,883.27C1035.02,883.27 1034.43,882.98 1034.07,882.45L1023.15,866.35C1022.57,865.49 1022.8,864.33 1023.65,863.75C1024.5,863.17 1025.67,863.39 1026.25,864.25L1037.17,880.35C1037.75,881.21 1037.52,882.37 1036.67,882.95C1036.35,883.17 1035.99,883.27 1035.62,883.27Z" style="fill:white;fill-rule:nonzero;"/>
            </g>
        </g>
        <g id="Plant_2_" transform="matrix(1,0,0,1,51,-13)">
            <path d="M1234.43,991.97C1234.94,994.38 1237.8,996.99 1239.45,995.16C1239.93,994.62 1240.08,993.87 1240.18,993.16C1241.41,984.78 1240.8,974.91 1247.28,969.46C1249.64,973.88 1251.99,978.3 1254.35,982.71C1257.68,970.4 1261.56,957.25 1271.51,949.28C1271.7,955 1271.9,960.71 1272.09,966.43C1272.13,967.49 1272.23,968.69 1273.04,969.36C1274.58,970.63 1276.78,968.9 1277.86,967.22C1281.83,961.07 1283.9,953.42 1289.64,948.87C1290.7,948.03 1292.17,947.31 1293.34,947.97C1294.06,948.38 1294.43,949.21 1294.64,950.01C1296.11,955.61 1291.89,960.89 1288.97,965.89C1285.6,971.64 1283.72,978.26 1283.56,984.93C1287.1,982.02 1290.64,979.1 1294.18,976.19C1296.3,974.44 1299.87,972.86 1301.35,975.17C1302.22,976.52 1301.59,978.31 1300.77,979.68C1298.83,982.93 1295.94,985.52 1293.84,988.66C1291.74,991.81 1290.47,995.99 1292.21,999.36C1296.03,995.81 1301.23,993.78 1306.44,993.81C1298.43,998.43 1297.61,1009.68 1291.9,1016.95C1282.09,1029.44 1252.76,1035.91 1239,1026.59C1232.38,1022.11 1229.09,1014.11 1227.26,1006.61C1226.1,1001.83 1225.12,996.32 1227,991.58C1229.67,984.89 1232.98,985.11 1234.43,991.97Z" style="fill:rgb(227,229,252);fill-rule:nonzero;"/>
        </g>
        <g id="Plant_1_" transform="matrix(1,0,0,1,51,-13)">
            <path d="M237.22,808.74C233.74,803.66 230.34,798.16 230.13,792.09C229.35,769.26 270.16,761.65 270.48,738.8C270.65,726.31 258.34,717.62 249.24,708.67C240.14,699.72 234.38,683.09 245.26,676.2C248.08,674.41 251.52,673.75 254.49,672.21C264.3,667.12 266.27,653.92 262.62,643.82C258.97,633.72 251.29,625.52 245.52,616.37C223,580.63 231.7,535.16 241.1,494.4C242.86,486.78 247.92,477.06 255.8,479.06C260.62,480.28 262.89,485.44 264.48,489.97C271.28,509.29 278.08,528.6 284.88,547.92C287.78,556.15 292.39,565.78 301.4,566.76C319.35,568.71 322,536.43 339.91,534.21C351.61,544 352.48,560.97 350.97,575.78C349.46,590.59 346.64,606.39 353.64,619.66C360.64,632.93 382.78,639.31 391.47,626.98C403.12,643.85 383.6,668.32 393.74,686.07C400.49,697.89 417.47,701.02 425.49,712.09C432.26,721.44 430.98,733.89 429.78,745.21C424.06,799.51 421.46,869.78 354.34,886.83C305.56,899.22 260.79,843.1 237.22,808.74Z" style="fill:rgb(90,84,255);fill-rule:nonzero;"/>
            <path d="M198.73,849.89C196.63,847.72 194.48,845.26 194.19,842.25C193.51,835.19 202.43,831.78 209.36,830.31C216.29,828.84 224.98,823.98 222.79,817.23C222.22,815.47 220.95,814.04 219.64,812.74C212.96,806.04 204.63,801 198.69,793.63C192.76,786.25 189.79,775.08 195.39,767.46C197,765.27 199.25,763.44 200.12,760.86C201.73,756.04 197.93,751.29 194.79,747.3C186.47,736.73 164.31,689.71 190.64,685.85C199.19,684.6 207.42,690.13 212.7,696.96C217.98,703.8 221.19,711.99 225.87,719.24C243.24,746.17 274.23,741.79 286.05,775.21C287.25,778.6 288.92,782.45 292.39,783.39C300.39,785.55 305.68,767.36 311.95,779.69C324.59,804.54 337.23,838.75 326.2,866.21C319.55,882.75 304.08,903.1 283.71,898.84C252.33,892.28 220.73,872.68 198.73,849.89Z" style="fill:rgb(244,78,78);fill-rule:nonzero;"/>
            <g>
                <path d="M286.54,875.63C285.86,875.63 285.2,875.25 284.87,874.6L228.45,762.99C227.98,762.07 228.35,760.94 229.28,760.47C230.19,760 231.33,760.37 231.8,761.3L288.22,872.91C288.69,873.83 288.32,874.96 287.39,875.43C287.12,875.57 286.83,875.63 286.54,875.63Z" style="fill:white;fill-rule:nonzero;"/>
            </g>
            <g>
                <g>
                    <path d="M360.01,893.49C359.14,893.49 358.36,892.88 358.18,891.99L302.2,615.86C302,614.85 302.65,613.86 303.66,613.65C304.67,613.45 305.67,614.1 305.87,615.12L361.85,891.25C362.05,892.26 361.4,893.25 360.39,893.46C360.25,893.47 360.13,893.49 360.01,893.49Z" style="fill:white;fill-rule:nonzero;"/>
                </g>
                <g>
                    <path d="M322.71,701.7C322.45,701.7 322.19,701.65 321.94,701.54C321,701.12 320.58,700 321,699.06L344.81,646.17C345.24,645.22 346.35,644.81 347.29,645.23C348.23,645.65 348.65,646.77 348.23,647.71L324.42,700.6C324.1,701.29 323.42,701.7 322.71,701.7Z" style="fill:white;fill-rule:nonzero;"/>
                </g>
                <g>
                    <path d="M344.04,801.61C343.78,801.61 343.52,801.56 343.27,801.45C342.33,801.03 341.91,799.91 342.33,798.97L366.14,746.08C366.56,745.13 367.68,744.72 368.62,745.14C369.56,745.56 369.98,746.68 369.56,747.62L345.75,800.51C345.44,801.2 344.75,801.61 344.04,801.61Z" style="fill:white;fill-rule:nonzero;"/>
                </g>
                <g>
                    <path d="M328.78,755.51C328.51,755.51 328.24,755.45 327.98,755.33L276.51,731.03C275.58,730.59 275.17,729.47 275.62,728.54C276.06,727.6 277.18,727.2 278.12,727.65L329.59,751.95C330.52,752.39 330.93,753.51 330.48,754.44C330.16,755.12 329.48,755.51 328.78,755.51Z" style="fill:white;fill-rule:nonzero;"/>
                </g>
            </g>
            <path d="M242.56,850.28C267.68,840.51 295.3,853.49 319.47,865.41C343.64,877.33 372.76,888.45 396.45,875.57C425.74,859.64 430.29,853.23 462.11,872.15C482.74,884.4 542.8,903 565.85,907.42C583.05,910.71 733.13,939.98 605.29,936.14C568.98,935.05 529.38,931.64 494.21,930.5C417.97,928.04 341.49,919.52 265.13,923.04C248,923.85 208.01,941 193.49,927.43C173.26,908.5 224.89,857.16 242.56,850.28Z" style="fill:rgb(253,197,16);fill-rule:nonzero;"/>
            <g>
                <path d="M269.54,842C269.42,842 269.29,841.99 269.17,841.96C268.15,841.76 267.49,840.77 267.7,839.76L275.48,800.89C275.68,799.87 276.7,799.22 277.68,799.42C278.7,799.62 279.36,800.61 279.15,801.62L271.37,840.49C271.2,841.39 270.42,842 269.54,842Z" style="fill:white;fill-rule:nonzero;"/>
            </g>
            <g>
                <path d="M460.15,938.35C459.54,938.35 458.94,938.05 458.58,937.5L429.16,892.69C428.59,891.82 428.83,890.66 429.7,890.1C430.56,889.53 431.72,889.77 432.29,890.64L461.71,935.45C462.28,936.32 462.04,937.48 461.17,938.04C460.86,938.25 460.51,938.35 460.15,938.35Z" style="fill:white;fill-rule:nonzero;"/>
            </g>
            <g>
                <path d="M292.79,931.35C292.28,931.35 291.78,931.14 291.41,930.74L256.95,892.93C256.25,892.17 256.31,890.98 257.07,890.28C257.83,889.58 259.02,889.64 259.72,890.4L294.18,928.21C294.88,928.97 294.82,930.16 294.06,930.86C293.69,931.19 293.24,931.35 292.79,931.35Z" style="fill:white;fill-rule:nonzero;"/>
            </g>
            <g>
                <path d="M277.32,914.37C276.93,914.37 276.54,914.25 276.2,914C275.37,913.38 275.19,912.21 275.81,911.38L291.28,890.54C291.9,889.71 293.08,889.54 293.9,890.15C294.73,890.77 294.91,891.94 294.29,892.77L278.82,913.61C278.45,914.11 277.89,914.37 277.32,914.37Z" style="fill:white;fill-rule:nonzero;"/>
            </g>
            <g>
                <path d="M445.44,915.94C445.16,915.94 444.88,915.88 444.62,915.75L410.62,899.17C409.69,898.72 409.3,897.6 409.76,896.67C410.22,895.74 411.35,895.36 412.26,895.81L446.26,912.39C447.19,912.84 447.58,913.96 447.12,914.89C446.8,915.56 446.14,915.94 445.44,915.94Z" style="fill:white;fill-rule:nonzero;"/>
            </g>
            <g>
                <path d="M437.58,903.95C437.36,903.95 437.13,903.91 436.91,903.83C435.94,903.46 435.46,902.38 435.82,901.41L443.69,880.73C444.06,879.76 445.15,879.28 446.11,879.65C447.08,880.02 447.56,881.1 447.2,882.07L439.33,902.75C439.04,903.5 438.33,903.95 437.58,903.95Z" style="fill:white;fill-rule:nonzero;"/>
            </g>
        </g>
        <g id="Plant" transform="matrix(1,0,0,1,51,-13)">
            <path d="M1427.06,799.43C1426.59,795.72 1426.52,791.46 1429.2,788.85C1435.59,782.64 1447.12,793.44 1454.74,788.83C1458.86,786.34 1459.47,780.53 1458.32,775.86C1457.17,771.19 1454.75,766.8 1454.45,762.01C1453.63,748.86 1467.82,740.64 1476.06,730.35C1483.76,720.73 1487.28,707.24 1497.87,700.94C1500.94,699.11 1504.83,698.05 1508.08,699.53C1514.02,702.23 1513.81,710.64 1512.49,717.03C1509.01,733.83 1504.84,753.1 1515.29,766.7C1519.3,771.92 1525.55,776.66 1525.1,783.24C1524.62,790.22 1516.77,794.33 1514.3,800.87C1511.28,808.88 1517.08,818.01 1514.79,826.26C1512.4,834.89 1502.44,838.91 1497.4,846.32C1495.05,849.78 1493.8,853.96 1491.1,857.15C1479.26,871.13 1457.65,860.48 1448.68,849.43C1437.06,835.13 1429.39,817.74 1427.06,799.43Z" style="fill:rgb(167,173,255);fill-rule:nonzero;"/>
            <path d="M1206.43,785.21C1231.46,773.9 1259.24,789.58 1283.56,803.98C1307.88,818.38 1337.14,831.87 1360.7,816.86C1389.84,798.29 1394.32,790.74 1426.36,813.51C1447.14,828.25 1507.44,850.97 1530.55,856.45C1547.8,860.54 1698.29,896.87 1570.33,890.93C1533.98,889.24 1494.32,884.77 1459.12,883.04C1382.8,879.29 1306.18,868.36 1229.81,871.71C1212.67,872.48 1172.85,892.38 1158.17,876.13C1137.72,853.48 1188.82,793.17 1206.43,785.21Z" style="fill:rgb(227,229,252);fill-rule:nonzero;"/>
            <path d="M1441.18,768.58C1444.31,763.24 1446.55,755.21 1440.89,752.19C1438.57,750.95 1435.72,751.17 1433.06,751.43C1424.25,752.29 1415.45,753.14 1406.64,754C1403.84,743.33 1410.22,732.32 1418.35,724.38C1426.48,716.43 1436.53,710.24 1443.86,701.65C1451.19,693.06 1455.38,680.66 1449.64,671.07C1443.9,661.48 1425.61,660.17 1421.51,670.47C1429.82,651.19 1438.14,631.91 1446.45,612.64C1448.56,607.75 1450.02,600.92 1445.14,598.28C1442.69,596.96 1439.62,597.42 1436.88,598.09C1423.6,601.34 1411.46,608.56 1402.68,618.42C1412.99,601.41 1398.72,580.42 1382.67,567.89C1368.1,556.52 1345.73,547.73 1331.2,559.16C1313.63,572.99 1325.85,599.42 1323.19,620.74C1322.67,624.93 1321.31,629.34 1317.8,632C1312.2,636.26 1303.72,634.38 1297.05,636.95C1284.37,641.84 1284.61,658.46 1287.01,671.07C1293.71,706.18 1300.4,741.29 1307.1,776.39C1295.54,767.67 1283.99,758.95 1272.43,750.23C1267.04,746.17 1260.11,741.86 1253.73,744.39C1250.05,745.85 1247.69,749.34 1246.68,752.96C1242.3,768.76 1259.27,781.8 1267.63,796.14C1284.85,825.71 1263.42,915.99 1327.02,880.4C1374.02,854.12 1415,813.26 1441.18,768.58Z" style="fill:rgb(90,84,255);fill-rule:nonzero;"/>
            <g>
                <path d="M1466.86,848.72C1466.7,848.72 1466.55,848.7 1466.38,848.66C1465.38,848.4 1464.78,847.37 1465.04,846.37L1485.02,770.27C1485.28,769.27 1486.29,768.67 1487.31,768.93C1488.31,769.19 1488.91,770.22 1488.65,771.22L1468.67,847.32C1468.45,848.16 1467.69,848.72 1466.86,848.72Z" style="fill:white;fill-rule:nonzero;"/>
            </g>
            <g>
                <path d="M1475.97,810.67C1475.27,810.67 1474.59,810.27 1474.27,809.59C1473.83,808.65 1474.24,807.54 1475.17,807.1L1498.53,796.15C1499.46,795.71 1500.58,796.11 1501.02,797.05C1501.46,797.99 1501.05,799.1 1500.12,799.54L1476.76,810.49C1476.51,810.61 1476.24,810.67 1475.97,810.67Z" style="fill:white;fill-rule:nonzero;"/>
            </g>
            <g>
                <path d="M1469.58,838.33C1468.91,838.33 1468.25,837.96 1467.92,837.32L1450.66,804.18C1450.18,803.26 1450.54,802.13 1451.46,801.65C1452.36,801.17 1453.51,801.53 1453.98,802.45L1471.24,835.59C1471.72,836.51 1471.36,837.64 1470.44,838.12C1470.17,838.27 1469.88,838.33 1469.58,838.33Z" style="fill:white;fill-rule:nonzero;"/>
            </g>
            <g>
                <path d="M1326.82,862.72C1326.67,862.72 1326.52,862.7 1326.37,862.67C1325.36,862.42 1324.75,861.41 1325,860.4L1377.6,646.49C1377.85,645.49 1378.86,644.86 1379.87,645.12C1380.88,645.37 1381.49,646.38 1381.24,647.39L1328.64,861.3C1328.43,862.15 1327.67,862.72 1326.82,862.72Z" style="fill:white;fill-rule:nonzero;"/>
            </g>
            <g>
                <path d="M1361.16,723.07C1360.57,723.07 1359.99,722.79 1359.63,722.27C1359.03,721.42 1359.24,720.26 1360.09,719.66L1407.08,686.76C1407.93,686.17 1409.1,686.37 1409.69,687.22C1410.29,688.07 1410.08,689.23 1409.23,689.83L1362.24,722.73C1361.91,722.96 1361.54,723.07 1361.16,723.07Z" style="fill:white;fill-rule:nonzero;"/>
            </g>
            <g>
                <path d="M1335.37,838.33C1334.8,838.33 1334.24,838.07 1333.87,837.57C1333.25,836.74 1333.43,835.57 1334.25,834.95L1393.29,791.02C1394.11,790.41 1395.29,790.57 1395.91,791.41C1396.53,792.24 1396.35,793.41 1395.53,794.03L1336.49,837.96C1336.15,838.21 1335.76,838.33 1335.37,838.33Z" style="fill:white;fill-rule:nonzero;"/>
            </g>
            <path d="M1418.25,842.4C1410.56,839.81 1401.27,838.88 1394.27,842.58C1383.92,848.04 1382.36,861.34 1371.31,865.77C1357.54,871.29 1341.91,858.69 1326.82,860.85C1313.91,862.7 1305.6,874.79 1292.57,875.86C1286.36,876.37 1280.35,874.23 1274.46,872.55C1268.56,870.87 1261.87,869.66 1256.25,871.9C1250.63,874.14 1247.9,881.26 1252.72,884.52C1254.88,885.98 1257.84,886.27 1260.63,886.49C1308.4,890.29 1356.72,891.54 1404.67,889.52C1418.32,888.94 1441.69,889.47 1447.15,875.91C1452.71,862.13 1431.76,846.95 1418.25,842.4Z" style="fill:rgb(244,78,78);fill-rule:nonzero;"/>
            <g>
                <path d="M1404.68,891.39C1404.51,891.39 1404.34,891.37 1404.16,891.32C1403.16,891.04 1402.59,890 1402.88,889L1411.35,859.42C1411.63,858.43 1412.64,857.84 1413.67,858.14C1414.67,858.42 1415.24,859.46 1414.95,860.46L1406.48,890.04C1406.24,890.85 1405.49,891.39 1404.68,891.39Z" style="fill:white;fill-rule:nonzero;"/>
            </g>
            <g>
                <path d="M1409.31,875.22C1408.66,875.22 1408.03,874.88 1407.69,874.28L1403.06,866.23C1402.54,865.33 1402.86,864.19 1403.75,863.67C1404.64,863.16 1405.79,863.46 1406.31,864.36L1410.94,872.41C1411.46,873.31 1411.14,874.45 1410.25,874.97C1409.95,875.14 1409.62,875.22 1409.31,875.22Z" style="fill:white;fill-rule:nonzero;"/>
            </g>
        </g>
    </g>
    <g transform="matrix(1,0,0,1,51,-13)">
        <g id="UI">
            <g id="Computer">
                <g>
                    <path d="M987.03,897.49L721.06,897.49C712.95,897.49 706.31,890.85 706.31,882.74L706.31,880.06C706.31,871.95 712.95,865.31 721.06,865.31L987.03,865.31C995.14,865.31 1001.78,871.95 1001.78,880.06L1001.78,882.74C1001.78,890.85 995.14,897.49 987.03,897.49Z" style="fill:rgb(151,140,255);fill-rule:nonzero;"/>
                    <path d="M904.42,897.49L803.67,897.49C797.34,897.49 792.16,892.31 792.16,885.98L792.16,766.21C792.16,759.88 797.34,754.7 803.67,754.7L904.42,754.7C910.75,754.7 915.93,759.88 915.93,766.21L915.93,885.99C915.92,892.31 910.75,897.49 904.42,897.49Z" style="fill:rgb(151,140,255);fill-rule:nonzero;"/>
                    <g>
                        <path d="M1316.83,797.85L391.25,797.85C373.82,797.85 359.56,783.59 359.56,766.16L359.56,201.55C359.56,184.12 373.82,169.86 391.25,169.86L1316.82,169.86C1334.25,169.86 1348.51,184.12 1348.51,201.55L1348.51,766.16C1348.52,783.59 1334.26,797.85 1316.83,797.85Z" style="fill:rgb(167,173,255);fill-rule:nonzero;"/>
                        <path d="M406.8,184.47C389.69,184.47 375.69,198.47 375.69,215.58L375.69,416.52C473.62,337.9 572.96,260.69 673.29,184.47L406.8,184.47Z" style="fill:rgb(239,240,252);fill-rule:nonzero;"/>
                        <path d="M1297.48,184.47L673.29,184.47C572.96,260.69 473.62,337.91 375.69,416.52L375.69,703.45C375.69,720.56 389.69,734.56 406.8,734.56L1297.48,734.56C1314.59,734.56 1328.59,720.56 1328.59,703.45L1328.59,215.58C1328.59,198.47 1314.59,184.47 1297.48,184.47Z" style="fill:rgb(227,229,252);fill-rule:nonzero;"/>
                    </g>
                </g>
                <g id="_x31__1_" transform="matrix(0.578441,0,0,0.578441,396.265,113.403)">
                    <g id="Screen">
                        <g>
                            <g>
                                <g>
                                    <g>
                                        <path d="M1318.8,270.2L1318.8,878.6C1318.8,893 1307.1,904.8 1292.6,904.8L354.5,904.8C340.1,904.8 328.3,893.1 328.3,878.6L328.3,270.2C328.3,255.8 340,244 354.5,244L1292.6,244C1307.1,244.1 1318.8,255.8 1318.8,270.2Z" style="fill:rgb(254,254,254);fill-rule:nonzero;"/>
                                    </g>
                                </g>
                                <g>
                                    <g>
                                        <path d="M1292.7,905.3L354.5,905.3C339.8,905.3 327.8,893.3 327.8,878.6L327.8,270.2C327.8,255.5 339.8,243.5 354.5,243.5L1292.6,243.5C1307.3,243.5 1319.3,255.5 1319.3,270.2L1319.3,878.6C1319.3,893.3 1307.4,905.3 1292.7,905.3ZM354.5,244.6C340.4,244.6 328.8,256.1 328.8,270.3L328.8,878.7C328.8,892.8 340.3,904.4 354.5,904.4L1292.6,904.4C1306.7,904.4 1318.3,892.9 1318.3,878.7L1318.3,270.2C1318.3,256.1 1306.8,244.5 1292.6,244.5L354.5,244.5L354.5,244.6Z" style="fill-rule:nonzero;"/>
                                    </g>
                                </g>
                            </g>
                            <g>
                                <g>
                                    <path d="M1318.8,269.2L1318.8,301L328.4,301L328.4,269.2C328.4,254.8 340.1,243 354.6,243L1292.7,243C1307.1,243.1 1318.8,254.8 1318.8,269.2Z" style="fill:rgb(38,17,52);fill-rule:nonzero;"/>
                                </g>
                            </g>
                            <g>
                                <g>
                                    <g>
                                        <rect x="380.1" y="347.1" width="114.3" height="40.9" style="fill:rgb(49,184,237);"/>
                                    </g>
                                </g>
                                <g>
                                    <g>
                                        <path d="M494.9,388.6L379.6,388.6L379.6,346.7L494.9,346.7L494.9,388.6ZM380.6,387.6L493.9,387.6L493.9,347.7L380.6,347.7L380.6,387.6Z" style="fill:rgb(38,17,52);fill-rule:nonzero;"/>
                                    </g>
                                </g>
                            </g>
                            <g>
                                <g>
                                    <g>
                                        <rect x="525.7" y="347.1" width="512.3" height="40.9" style="fill:rgb(254,254,254);"/>
                                    </g>
                                </g>
                                <g>
                                    <g>
                                        <path d="M1038.5,388.6L525.2,388.6L525.2,346.7L1038.5,346.7L1038.5,388.6ZM526.2,387.6L1037.5,387.6L1037.5,347.7L526.2,347.7L526.2,387.6Z" style="fill:rgb(38,17,52);fill-rule:nonzero;"/>
                                    </g>
                                </g>
                            </g>
                            <g>
                                <g>
                                    <g>
                                        <circle cx="386.4" cy="271.5" r="12.5" style="fill:rgb(242,122,121);"/>
                                    </g>
                                </g>
                                <g>
                                    <g>
                                        <circle cx="426.2" cy="271.5" r="12.5" style="fill:rgb(250,212,59);"/>
                                    </g>
                                </g>
                                <g>
                                    <g>
                                        <circle cx="467.1" cy="271.5" r="12.5" style="fill:rgb(110,188,178);"/>
                                    </g>
                                </g>
                            </g>
                            <g>
                                <g>
                                    <g>
                                        <rect x="1071.5" y="347.1" width="82.4" height="40.9" style="fill:rgb(254,254,254);"/>
                                    </g>
                                </g>
                                <g>
                                    <g>
                                        <path d="M1154.5,388.6L1071,388.6L1071,346.7L1154.4,346.7L1154.4,388.6L1154.5,388.6ZM1072,387.6L1153.4,387.6L1153.4,347.7L1072,347.7L1072,387.6Z" style="fill:rgb(38,17,52);fill-rule:nonzero;"/>
                                    </g>
                                </g>
                            </g>
                            <g>
                                <g>
                                    <g>
                                        <rect x="1179.5" y="347.1" width="82.4" height="40.9" style="fill:rgb(27,160,150);"/>
                                    </g>
                                </g>
                                <g>
                                    <g>
                                        <path d="M1262.5,388.6L1179,388.6L1179,346.7L1262.4,346.7L1262.4,388.6L1262.5,388.6ZM1180,387.6L1261.4,387.6L1261.4,347.7L1180,347.7L1180,387.6Z" style="fill:rgb(38,17,52);fill-rule:nonzero;"/>
                                    </g>
                                </g>
                            </g>
                        </g>
                        <g>
                            <g>
                                <g>
                                    <g>
                                        <path d="M526.5,810.2L526.5,842.4C526.5,845.1 528.7,847.3 531.4,847.3L756.2,847.3C758.9,847.3 761.1,845.1 761.1,842.4L761.1,810.2C761.1,807.5 758.9,805.3 756.2,805.3L531.4,805.3C528.7,805.3 526.5,807.5 526.5,810.2Z" style="fill:rgb(254,254,254);fill-rule:nonzero;"/>
                                    </g>
                                </g>
                                <g>
                                    <g>
                                        <path d="M756.1,847.7L531.4,847.7C528.4,847.7 526,845.3 526,842.3L526,810.1C526,807.1 528.4,804.7 531.4,804.7L756.2,804.7C759.2,804.7 761.6,807.1 761.6,810.1L761.6,842.3C761.5,845.3 759.1,847.7 756.1,847.7ZM531.4,805.8C529,805.8 527,807.8 527,810.2L527,842.4C527,844.8 529,846.8 531.4,846.8L756.2,846.8C758.6,846.8 760.6,844.8 760.6,842.4L760.6,810.2C760.6,807.8 758.6,805.8 756.2,805.8L531.4,805.8Z" style="fill:rgb(38,17,52);fill-rule:nonzero;"/>
                                    </g>
                                </g>
                            </g>
                            <g>
                                <g>
                                    <g>
                                        <circle cx="551.1" cy="826.6" r="10.3" style="fill:rgb(250,211,56);"/>
                                    </g>
                                </g>
                                <g>
                                    <g>
                                        <path d="M551.1,837.4C545.1,837.4 540.3,832.5 540.3,826.6C540.3,820.7 545.2,815.8 551.1,815.8C557,815.8 561.9,820.7 561.9,826.6C561.9,832.5 557.1,837.4 551.1,837.4ZM551.1,816.7C545.7,816.7 541.3,821.1 541.3,826.5C541.3,831.9 545.7,836.3 551.1,836.3C556.5,836.3 560.9,831.9 560.9,826.5C560.9,821.1 556.5,816.7 551.1,816.7Z" style="fill:rgb(38,17,52);fill-rule:nonzero;"/>
                                    </g>
                                </g>
                            </g>
                            <g>
                                <g>
                                    <g>
                                        <rect x="569.3" y="821.1" width="177.4" height="10.3" style="fill:rgb(242,123,121);"/>
                                    </g>
                                </g>
                                <g>
                                    <g>
                                        <path d="M747.2,831.9L568.8,831.9L568.8,820.6L747.2,820.6L747.2,831.9ZM569.8,830.9L746.2,830.9L746.2,821.6L569.8,821.6L569.8,830.9Z" style="fill:rgb(38,17,52);fill-rule:nonzero;"/>
                                    </g>
                                </g>
                            </g>
                        </g>
                        <g>
                            <g>
                                <g>
                                    <g>
                                        <path d="M802.5,810.2L802.5,842.4C802.5,845.1 804.7,847.3 807.4,847.3L1032.2,847.3C1034.9,847.3 1037.1,845.1 1037.1,842.4L1037.1,810.2C1037.1,807.5 1034.9,805.3 1032.2,805.3L807.4,805.3C804.7,805.3 802.5,807.5 802.5,810.2Z" style="fill:rgb(254,254,254);fill-rule:nonzero;"/>
                                    </g>
                                </g>
                                <g>
                                    <g>
                                        <path d="M1032.1,847.7L807.4,847.7C804.4,847.7 802,845.3 802,842.3L802,810.1C802,807.1 804.4,804.7 807.4,804.7L1032.2,804.7C1035.2,804.7 1037.6,807.1 1037.6,810.1L1037.6,842.3C1037.5,845.3 1035.1,847.7 1032.1,847.7ZM807.4,805.8C805,805.8 803,807.8 803,810.2L803,842.4C803,844.8 805,846.8 807.4,846.8L1032.2,846.8C1034.6,846.8 1036.6,844.8 1036.6,842.4L1036.6,810.2C1036.6,807.8 1034.6,805.8 1032.2,805.8L807.4,805.8Z" style="fill:rgb(38,17,52);fill-rule:nonzero;"/>
                                    </g>
                                </g>
                            </g>
                            <g>
                                <g>
                                    <g>
                                        <circle cx="827.1" cy="826.6" r="10.3" style="fill:rgb(250,211,56);"/>
                                    </g>
                                </g>
                                <g>
                                    <g>
                                        <path d="M827.1,837.4C821.1,837.4 816.3,832.5 816.3,826.6C816.3,820.7 821.2,815.8 827.1,815.8C833,815.8 837.9,820.7 837.9,826.6C837.9,832.5 833.1,837.4 827.1,837.4ZM827.1,816.7C821.7,816.7 817.3,821.1 817.3,826.5C817.3,831.9 821.7,836.3 827.1,836.3C832.5,836.3 836.9,831.9 836.9,826.5C836.9,821.1 832.5,816.7 827.1,816.7Z" style="fill:rgb(38,17,52);fill-rule:nonzero;"/>
                                    </g>
                                </g>
                            </g>
                            <g>
                                <g>
                                    <g>
                                        <rect x="845.3" y="821.1" width="177.4" height="10.3" style="fill:rgb(242,123,121);"/>
                                    </g>
                                </g>
                                <g>
                                    <g>
                                        <path d="M1023.2,831.9L844.8,831.9L844.8,820.6L1023.2,820.6L1023.2,831.9ZM845.8,830.9L1022.2,830.9L1022.2,821.6L845.8,821.6L845.8,830.9Z" style="fill:rgb(38,17,52);fill-rule:nonzero;"/>
                                    </g>
                                </g>
                            </g>
                        </g>
                        <g>
                            <g>
                                <g>
                                    <g>
                                        <path d="M1036.5,451.3L1036.5,747.8C1036.5,753.3 1032.1,757.7 1026.6,757.7L812.7,757.7C807.2,757.7 802.8,753.3 802.8,747.8L802.8,451.3C802.8,445.8 807.2,441.4 812.7,441.4L1026.6,441.4C1032.1,441.4 1036.5,445.8 1036.5,451.3Z" style="fill:rgb(254,254,254);fill-rule:nonzero;"/>
                                    </g>
                                </g>
                                <g>
                                    <g>
                                        <path d="M1026.6,758.1L812.7,758.1C807,758.1 802.3,753.4 802.3,747.7L802.3,451.3C802.3,445.6 807,440.9 812.7,440.9L1026.6,440.9C1032.3,440.9 1037,445.6 1037,451.3L1037,747.8C1037,753.5 1032.4,758.1 1026.6,758.1ZM812.7,441.9C807.5,441.9 803.3,446.1 803.3,451.3L803.3,747.8C803.3,753 807.5,757.2 812.7,757.2L1026.6,757.2C1031.8,757.2 1036,753 1036,747.8L1036,451.3C1036,446.1 1031.8,441.9 1026.6,441.9L812.7,441.9Z" style="fill:rgb(38,17,52);fill-rule:nonzero;"/>
                                    </g>
                                </g>
                            </g>
                            <g>
                                <g>
                                    <g>
                                        <path d="M1036.5,451.3L1036.5,633.8L802.8,633.8L802.8,451.3C802.8,445.8 807.2,441.4 812.7,441.4L1026.6,441.4C1032.1,441.4 1036.5,445.8 1036.5,451.3Z" style="fill:rgb(254,254,254);fill-rule:nonzero;"/>
                                    </g>
                                </g>
                                <g>
                                    <g>
                                        <path d="M1037,634.3L802.3,634.3L802.3,451.3C802.3,445.6 807,440.9 812.7,440.9L1026.6,440.9C1032.3,440.9 1037,445.6 1037,451.3L1037,634.3ZM803.3,633.3L1036,633.3L1036,451.3C1036,446.1 1031.8,441.9 1026.6,441.9L812.7,441.9C807.5,441.9 803.3,446.1 803.3,451.3L803.3,633.3Z" style="fill:rgb(38,17,52);fill-rule:nonzero;"/>
                                    </g>
                                </g>
                            </g>
                            <g>
                                <g>
                                    <g>
                                        <rect x="824.2" y="653" width="190.5" height="11.7" style="fill:rgb(254,254,254);"/>
                                    </g>
                                </g>
                                <g>
                                    <g>
                                        <path d="M1015.2,665.2L823.7,665.2L823.7,652.5L1015.2,652.5L1015.2,665.2ZM824.7,664.2L1014.2,664.2L1014.2,653.5L824.7,653.5L824.7,664.2Z" style="fill:rgb(38,17,52);fill-rule:nonzero;"/>
                                    </g>
                                </g>
                            </g>
                            <g>
                                <g>
                                    <g>
                                        <rect x="824.2" y="678.3" width="190.5" height="11.7" style="fill:rgb(254,254,254);"/>
                                    </g>
                                </g>
                                <g>
                                    <g>
                                        <path d="M1015.2,690.6L823.7,690.6L823.7,677.9L1015.2,677.9L1015.2,690.6ZM824.7,689.6L1014.2,689.6L1014.2,678.9L824.7,678.9L824.7,689.6Z" style="fill:rgb(38,17,52);fill-rule:nonzero;"/>
                                    </g>
                                </g>
                            </g>
                            <g>
                                <g>
                                    <g>
                                        <rect x="824.2" y="703.7" width="101.8" height="11.7" style="fill:rgb(49,184,237);"/>
                                    </g>
                                </g>
                                <g>
                                    <g>
                                        <path d="M926.5,715.9L823.7,715.9L823.7,703.2L926.5,703.2L926.5,715.9ZM824.7,714.9L925.5,714.9L925.5,704.2L824.7,704.2L824.7,714.9Z" style="fill:rgb(38,17,52);fill-rule:nonzero;"/>
                                    </g>
                                </g>
                            </g>
                            <g>
                                <g>
                                    <g>
                                        <path d="M834.7,726.7L837.5,732.3L843.6,733.2L839.2,737.5L840.2,743.6L834.7,740.7L829.3,743.6L830.3,737.5L825.9,733.2L832,732.3L834.7,726.7Z" style="fill:rgb(250,211,56);fill-rule:nonzero;"/>
                                    </g>
                                </g>
                                <g>
                                    <g>
                                        <path d="M840.9,744.5L834.8,741.3L828.7,744.5L829.9,737.7L824.9,732.9L831.8,731.9L834.9,725.7L838,731.9L844.9,732.9L839.9,737.7L840.9,744.5ZM834.7,740.1L839.5,742.6L838.6,737.2L842.5,733.4L837.1,732.6L834.7,727.7L832.3,732.6L826.9,733.4L830.8,737.2L829.9,742.6L834.7,740.1Z" style="fill:rgb(38,17,52);fill-rule:nonzero;"/>
                                    </g>
                                </g>
                            </g>
                            <g>
                                <g>
                                    <g>
                                        <path d="M863.1,726.7L865.8,732.3L872,733.2L867.5,737.5L868.6,743.6L863.1,740.7L857.6,743.6L858.7,737.5L854.2,733.2L860.4,732.3L863.1,726.7Z" style="fill:rgb(250,211,56);fill-rule:nonzero;"/>
                                    </g>
                                </g>
                                <g>
                                    <g>
                                        <path d="M869.2,744.5L863.1,741.3L857,744.5L858.2,737.7L853.2,732.9L860.1,731.9L863.2,725.7L866.3,731.9L873.2,732.9L868.2,737.7L869.2,744.5ZM863.1,740.1L867.9,742.6L867,737.2L870.9,733.4L865.5,732.6L863.1,727.7L860.7,732.6L855.3,733.4L859.2,737.2L858.3,742.6L863.1,740.1Z" style="fill:rgb(38,17,52);fill-rule:nonzero;"/>
                                    </g>
                                </g>
                            </g>
                            <g>
                                <g>
                                    <g>
                                        <path d="M892.6,726.7L895.3,732.3L901.4,733.2L897,737.5L898.1,743.6L892.6,740.7L887.1,743.6L888.2,737.5L883.7,733.2L889.8,732.3L892.6,726.7Z" style="fill:rgb(250,211,56);fill-rule:nonzero;"/>
                                    </g>
                                </g>
                                <g>
                                    <g>
                                        <path d="M898.7,744.5L892.6,741.3L886.5,744.5L887.7,737.7L882.7,732.9L889.6,731.9L892.7,725.7L895.8,731.9L902.7,732.9L897.7,737.7L898.7,744.5ZM892.6,740.1L897.4,742.6L896.5,737.2L900.4,733.4L895,732.6L892.6,727.7L890.2,732.6L884.8,733.4L888.7,737.2L887.8,742.6L892.6,740.1Z" style="fill:rgb(38,17,52);fill-rule:nonzero;"/>
                                    </g>
                                </g>
                            </g>
                            <g>
                                <g>
                                    <g>
                                        <path d="M922.1,726.7L924.8,732.3L930.9,733.2L926.5,737.5L927.6,743.6L922.1,740.7L916.6,743.6L917.6,737.5L913.2,733.2L919.3,732.3L922.1,726.7Z" style="fill:rgb(250,211,56);fill-rule:nonzero;"/>
                                    </g>
                                </g>
                                <g>
                                    <g>
                                        <path d="M928.2,744.5L922.1,741.3L916,744.5L917.2,737.7L912.2,732.9L919.1,731.9L922.2,725.7L925.3,731.9L932.2,732.9L927.2,737.7L928.2,744.5ZM914.3,733.5L918.2,737.3L917.3,742.7L922.1,740.2L926.9,742.7L926,737.3L929.9,733.5L924.5,732.7L922.1,727.8L919.7,732.7L914.3,733.5Z" style="fill:rgb(38,17,52);fill-rule:nonzero;"/>
                                    </g>
                                </g>
                            </g>
                            <g>
                                <g>
                                    <g>
                                        <path d="M951.2,726.7L953.9,732.3L960,733.2L955.6,737.5L956.6,743.6L951.2,740.7L945.7,743.6L946.7,737.5L942.3,733.2L948.4,732.3L951.2,726.7Z" style="fill:rgb(250,211,56);fill-rule:nonzero;"/>
                                    </g>
                                </g>
                                <g>
                                    <g>
                                        <path d="M957.3,744.5L951.2,741.3L945.1,744.5L946.3,737.7L941.3,732.9L948.2,731.9L951.3,725.7L954.4,731.9L961.3,732.9L956.3,737.7L957.3,744.5ZM951.2,740.1L956,742.6L955.1,737.2L959,733.4L953.6,732.6L951.2,727.7L948.8,732.6L943.4,733.4L947.3,737.2L946.4,742.6L951.2,740.1Z" style="fill:rgb(38,17,52);fill-rule:nonzero;"/>
                                    </g>
                                </g>
                            </g>
                            <g>
                                <g>
                                    <g>
                                        <path d="M896.3,476.8C900.6,478.8 918.3,485.5 942.7,476.7C943.2,476.5 943.7,476.9 943.7,477.4L943.7,512.9C943.7,513.3 943.4,513.6 943,513.6L896.2,513.6C895.8,513.6 895.5,513.3 895.5,512.9L895.3,477.6C895.3,476.9 895.8,476.6 896.3,476.8Z" style="fill:rgb(38,17,52);fill-rule:nonzero;"/>
                                    </g>
                                </g>
                                <g>
                                    <g>
                                        <path d="M943,514L896.2,514C895.5,514 895,513.5 895,512.8L894.8,477.5C894.8,477.1 895,476.7 895.4,476.5C895.7,476.3 896.2,476.2 896.6,476.4C901.3,478.6 918.6,484.9 942.7,476.2C943.1,476.1 943.5,476.1 943.8,476.3C944.1,476.5 944.3,476.9 944.3,477.3L944.3,512.8C944.2,513.5 943.7,514 943,514ZM896,477.2L895.9,477.2C895.9,477.2 895.8,477.3 895.8,477.4L896,512.7C896,512.8 896.1,512.9 896.2,512.9L943,512.9C943.1,512.9 943.2,512.8 943.2,512.7L943.2,477.2C943.2,477.1 943.1,477.1 943.1,477C943.1,477 943,476.9 942.9,477C918.5,485.9 900.9,479.4 896,477.2C896.1,477.2 896,477.2 896,477.2Z" style="fill:rgb(38,17,52);fill-rule:nonzero;"/>
                                    </g>
                                </g>
                            </g>
                            <g>
                                <g>
                                    <g>
                                        <path d="M949.4,564.1C949.4,564.1 958.7,574.5 966.6,602L872.4,602C880.3,574.5 889.6,564.1 889.6,564.1L889.6,564L889,559.4L884.4,524.5L875,543.6L846.8,530.7L863.2,498C875.6,471 896.3,476.6 896.3,476.6C899.5,496.8 907.9,502.8 914.3,504.4C915.5,504.7 916.8,504.8 918,504.8L921.2,504.8C922.5,504.8 923.7,504.7 924.9,504.4C931.3,502.8 939.7,496.8 942.9,476.6C942.9,476.6 963.6,471 976,498L992.4,530.7L964,543.5L954.6,524.4L950,559.3L949.4,563.8L949.4,564.1Z" style="fill:rgb(242,123,121);fill-rule:nonzero;"/>
                                    </g>
                                </g>
                                <g>
                                    <g>
                                        <path d="M967.2,602.5L871.7,602.5L871.9,601.9C879.2,576.5 887.8,565.5 889.1,564L884.1,526.2L875.2,544.2L846,530.9L862.6,497.7C875,470.6 896,476 896.3,476L896.6,476.1L896.7,476.4C899.8,496.3 908,502.3 914.3,503.8C915.4,504.1 916.6,504.2 917.9,504.2L921.1,504.2C922.4,504.2 923.6,504.1 924.7,503.8C931,502.3 939.1,496.3 942.3,476.4L942.4,476.1L942.7,476C942.9,475.9 963.9,470.6 976.4,497.7L993,530.9L963.8,544.2L954.9,526.2L949.9,564C951.1,565.5 959.8,576.5 967.1,602L967.2,602.5ZM873.1,601.5L965.9,601.5C958.2,574.9 949.1,564.5 949,564.4L948.9,564.2L948.9,563.7L954.3,522.7L964.2,542.8L991.5,530.3L975.4,498.1C964.1,473.6 945.8,476.3 943.2,476.9C939.9,497 931.5,503.2 924.9,504.8C923.7,505.1 922.4,505.2 921.1,505.2L917.9,505.2C916.5,505.2 915.2,505.1 914.1,504.8C907.6,503.2 899.1,497.1 895.8,476.9C893.2,476.4 874.9,473.6 863.6,498.1L847.5,530.4L874.8,542.9L884.7,522.8L890.1,564.3L889.9,564.5C889.9,564.5 880.8,574.9 873.1,601.5Z" style="fill:rgb(38,17,52);fill-rule:nonzero;"/>
                                    </g>
                                </g>
                            </g>
                            <g>
                                <g>
                                    <g>
                                        <path d="M950,559.4L949.4,563.9L909,563.9C908.6,566.8 908.1,571.7 907.9,574C907.9,574.4 907.7,574.7 907.4,574.9C907.1,575.1 906.8,575.3 906.4,575.3C905.6,575.3 905,574.7 904.9,573.9C904.8,570.1 905.1,564.5 905.1,564.5C902.7,568.3 901.4,578.8 901,582.5C901,582.9 900.8,583.2 900.5,583.5C900.2,583.7 899.9,583.9 899.5,583.9C898.7,583.9 898.1,583.3 898,582.5C897.1,569.8 900.8,564.1 900.8,564.1L889.5,564.1L888.9,559.5L950,559.5L950,559.4Z" style="fill:rgb(254,254,254);fill-rule:nonzero;"/>
                                    </g>
                                </g>
                                <g>
                                    <g>
                                        <path d="M899.6,584.3C898.6,584.3 897.7,583.5 897.6,582.5C896.9,572.3 899.1,566.5 900.1,564.5L889.2,564.5L888.5,558.9L950.6,558.9L949.9,564.4L909.5,564.4C909.1,567.6 908.6,572.5 908.5,574C908.4,574.5 908.2,574.9 907.9,575.3C907.5,575.6 907.1,575.8 906.6,575.8C905.5,575.8 904.7,575 904.6,573.9C904.5,571.7 904.6,569 904.7,567C903,571.7 902,579.9 901.7,582.6C901.6,583.1 901.4,583.5 901.1,583.9C900.5,584.1 900.1,584.3 899.6,584.3ZM890.1,563.4L901.9,563.4L901.4,564.2C901.4,564.3 897.8,570 898.6,582.3C898.6,582.8 899.1,583.2 899.6,583.2C899.8,583.2 900.1,583.1 900.3,582.9C900.5,582.7 900.6,582.5 900.6,582.3C901,578.1 902.3,568 904.8,564.1L905.8,562.5L905.7,564.4C905.7,564.5 905.4,569.9 905.5,573.7C905.5,574.2 905.9,574.6 906.5,574.6C906.7,574.6 907,574.5 907.1,574.4C907.3,574.2 907.4,574 907.4,573.8C907.6,572.2 908.1,566.9 908.5,563.7L908.6,563.3L949,563.3L949.5,559.8L889.7,559.8L890.1,563.4Z" style="fill:rgb(38,17,52);fill-rule:nonzero;"/>
                                    </g>
                                </g>
                            </g>
                            <g>
                                <g>
                                    <g>
                                        <g>
                                            <circle cx="1035.8" cy="441.3" r="24.3" style="fill:rgb(254,254,254);"/>
                                        </g>
                                    </g>
                                    <g>
                                        <g>
                                            <path d="M1035.8,466C1022.2,466 1011,454.9 1011,441.2C1011,427.5 1022.1,416.4 1035.8,416.4C1049.5,416.4 1060.6,427.5 1060.6,441.2C1060.6,454.9 1049.4,466 1035.8,466ZM1035.8,417.5C1022.7,417.5 1012,428.2 1012,441.3C1012,454.4 1022.7,465.1 1035.8,465.1C1048.9,465.1 1059.6,454.4 1059.6,441.3C1059.6,428.2 1048.8,417.5 1035.8,417.5Z" style="fill:rgb(38,17,52);fill-rule:nonzero;"/>
                                        </g>
                                    </g>
                                </g>
                                <g>
                                    <g>
                                        <g>
                                            <path d="M1042.7,429.1C1039.4,429.1 1036.6,431.3 1035.7,434.3C1034.8,431.3 1032,429.1 1028.7,429.1C1024.7,429.1 1021.4,432.4 1021.4,436.4C1021.4,437.7 1021.8,438.9 1022.4,440C1022.7,440.5 1023,440.9 1023.4,441.3L1035.4,457.6L1047.8,441.6C1048.3,441.1 1048.7,440.6 1049,440C1049.6,438.9 1050,437.7 1050,436.4C1050,432.4 1046.7,429.1 1042.7,429.1Z" style="fill:rgb(242,123,121);fill-rule:nonzero;"/>
                                        </g>
                                    </g>
                                    <g>
                                        <g>
                                            <path d="M1035.4,458.4L1023,441.6C1022.6,441.2 1022.3,440.7 1022,440.2C1021.3,439 1021,437.7 1021,436.3C1021,432 1024.5,428.5 1028.8,428.5C1031.8,428.5 1034.5,430.2 1035.8,432.8C1037.1,430.2 1039.8,428.5 1042.8,428.5C1047.1,428.5 1050.6,432 1050.6,436.3C1050.6,437.6 1050.2,439 1049.6,440.2C1049.2,440.8 1048.8,441.4 1048.3,441.9L1035.4,458.4ZM1028.8,429.6C1025.1,429.6 1022,432.6 1022,436.4C1022,437.6 1022.3,438.7 1022.9,439.8C1023.2,440.2 1023.5,440.6 1023.8,441L1035.4,456.8L1047.4,441.3C1047.9,440.8 1048.3,440.3 1048.6,439.8C1049.2,438.8 1049.5,437.6 1049.5,436.4C1049.5,432.7 1046.5,429.6 1042.7,429.6C1039.7,429.6 1037.1,431.5 1036.2,434.4L1035.7,436L1035.2,434.4C1034.4,431.6 1031.8,429.6 1028.8,429.6Z" style="fill:rgb(38,17,52);fill-rule:nonzero;"/>
                                        </g>
                                    </g>
                                </g>
                            </g>
                        </g>
                        <g>
                            <g>
                                <g>
                                    <g>
                                        <path d="M760.5,451.3L760.5,747.8C760.5,753.3 756.1,757.7 750.6,757.7L536.7,757.7C531.2,757.7 526.8,753.3 526.8,747.8L526.8,451.3C526.8,445.8 531.2,441.4 536.7,441.4L750.6,441.4C756.1,441.4 760.5,445.8 760.5,451.3Z" style="fill:rgb(254,254,254);fill-rule:nonzero;"/>
                                    </g>
                                </g>
                                <g>
                                    <g>
                                        <path d="M750.6,758.1L536.7,758.1C531,758.1 526.3,753.4 526.3,747.7L526.3,451.3C526.3,445.6 531,440.9 536.7,440.9L750.6,440.9C756.3,440.9 761,445.6 761,451.3L761,747.8C761,753.5 756.4,758.1 750.6,758.1ZM536.7,441.9C531.5,441.9 527.3,446.1 527.3,451.3L527.3,747.8C527.3,753 531.5,757.2 536.7,757.2L750.6,757.2C755.8,757.2 760,753 760,747.8L760,451.3C760,446.1 755.8,441.9 750.6,441.9L536.7,441.9Z" style="fill:rgb(38,17,52);fill-rule:nonzero;"/>
                                    </g>
                                </g>
                            </g>
                            <g>
                                <g>
                                    <g>
                                        <path d="M760.5,451.3L760.5,633.8L526.8,633.8L526.8,451.3C526.8,445.8 531.2,441.4 536.7,441.4L750.6,441.4C756.1,441.4 760.5,445.8 760.5,451.3Z" style="fill:rgb(254,254,254);fill-rule:nonzero;"/>
                                    </g>
                                </g>
                                <g>
                                    <g>
                                        <path d="M761,634.3L526.3,634.3L526.3,451.3C526.3,445.6 531,440.9 536.7,440.9L750.6,440.9C756.3,440.9 761,445.6 761,451.3L761,634.3ZM527.3,633.3L760,633.3L760,451.3C760,446.1 755.8,441.9 750.6,441.9L536.7,441.9C531.5,441.9 527.3,446.1 527.3,451.3L527.3,633.3Z" style="fill:rgb(38,17,52);fill-rule:nonzero;"/>
                                    </g>
                                </g>
                            </g>
                            <g>
                                <g>
                                    <g>
                                        <rect x="548.2" y="653" width="190.5" height="11.7" style="fill:rgb(254,254,254);"/>
                                    </g>
                                </g>
                                <g>
                                    <g>
                                        <path d="M739.2,665.2L547.7,665.2L547.7,652.5L739.2,652.5L739.2,665.2ZM548.7,664.2L738.2,664.2L738.2,653.5L548.7,653.5L548.7,664.2Z" style="fill:rgb(38,17,52);fill-rule:nonzero;"/>
                                    </g>
                                </g>
                            </g>
                            <g>
                                <g>
                                    <g>
                                        <rect x="548.2" y="678.3" width="190.5" height="11.7" style="fill:rgb(254,254,254);"/>
                                    </g>
                                </g>
                                <g>
                                    <g>
                                        <path d="M739.2,690.6L547.7,690.6L547.7,677.9L739.2,677.9L739.2,690.6ZM548.7,689.6L738.2,689.6L738.2,678.9L548.7,678.9L548.7,689.6Z" style="fill:rgb(38,17,52);fill-rule:nonzero;"/>
                                    </g>
                                </g>
                            </g>
                            <g>
                                <g>
                                    <g>
                                        <rect x="548.2" y="703.7" width="101.8" height="11.7" style="fill:rgb(49,184,237);"/>
                                    </g>
                                </g>
                                <g>
                                    <g>
                                        <path d="M650.5,715.9L547.7,715.9L547.7,703.2L650.5,703.2L650.5,715.9ZM548.7,714.9L649.5,714.9L649.5,704.2L548.7,704.2L548.7,714.9Z" style="fill:rgb(38,17,52);fill-rule:nonzero;"/>
                                    </g>
                                </g>
                            </g>
                            <g>
                                <g>
                                    <g>
                                        <path d="M558.7,726.7L561.5,732.3L567.6,733.2L563.2,737.5L564.2,743.6L558.7,740.7L553.3,743.6L554.3,737.5L549.9,733.2L556,732.3L558.7,726.7Z" style="fill:rgb(250,211,56);fill-rule:nonzero;"/>
                                    </g>
                                </g>
                                <g>
                                    <g>
                                        <path d="M564.9,744.5L558.8,741.3L552.7,744.5L553.9,737.7L548.9,732.9L555.8,731.9L558.9,725.7L562,731.9L568.9,732.9L563.9,737.7L564.9,744.5ZM558.7,740.1L563.5,742.6L562.6,737.2L566.5,733.4L561.1,732.6L558.7,727.7L556.3,732.6L550.9,733.4L554.8,737.2L553.9,742.6L558.7,740.1Z" style="fill:rgb(38,17,52);fill-rule:nonzero;"/>
                                    </g>
                                </g>
                            </g>
                            <g>
                                <g>
                                    <g>
                                        <path d="M587.1,726.7L589.8,732.3L596,733.2L591.5,737.5L592.6,743.6L587.1,740.7L581.6,743.6L582.7,737.5L578.2,733.2L584.4,732.3L587.1,726.7Z" style="fill:rgb(250,211,56);fill-rule:nonzero;"/>
                                    </g>
                                </g>
                                <g>
                                    <g>
                                        <path d="M593.2,744.5L587.1,741.3L581,744.5L582.2,737.7L577.2,732.9L584.1,731.9L587.2,725.7L590.3,731.9L597.2,732.9L592.2,737.7L593.2,744.5ZM587.1,740.1L591.9,742.6L591,737.2L594.9,733.4L589.5,732.6L587.1,727.7L584.7,732.6L579.3,733.4L583.2,737.2L582.3,742.6L587.1,740.1Z" style="fill:rgb(38,17,52);fill-rule:nonzero;"/>
                                    </g>
                                </g>
                            </g>
                            <g>
                                <g>
                                    <g>
                                        <path d="M616.6,726.7L619.3,732.3L625.4,733.2L621,737.5L622.1,743.6L616.6,740.7L611.1,743.6L612.2,737.5L607.7,733.2L613.8,732.3L616.6,726.7Z" style="fill:rgb(250,211,56);fill-rule:nonzero;"/>
                                    </g>
                                </g>
                                <g>
                                    <g>
                                        <path d="M622.7,744.5L616.6,741.3L610.5,744.5L611.7,737.7L606.7,732.9L613.6,731.9L616.7,725.7L619.8,731.9L626.7,732.9L621.7,737.7L622.7,744.5ZM616.6,740.1L621.4,742.6L620.5,737.2L624.4,733.4L619,732.6L616.6,727.7L614.2,732.6L608.8,733.4L612.7,737.2L611.8,742.6L616.6,740.1Z" style="fill:rgb(38,17,52);fill-rule:nonzero;"/>
                                    </g>
                                </g>
                            </g>
                            <g>
                                <g>
                                    <g>
                                        <path d="M646.1,726.7L648.8,732.3L654.9,733.2L650.5,737.5L651.6,743.6L646.1,740.7L640.6,743.6L641.6,737.5L637.2,733.2L643.3,732.3L646.1,726.7Z" style="fill:rgb(250,211,56);fill-rule:nonzero;"/>
                                    </g>
                                </g>
                                <g>
                                    <g>
                                        <path d="M652.2,744.5L646.1,741.3L640,744.5L641.2,737.7L636.2,732.9L643.1,731.9L646.2,725.7L649.3,731.9L656.2,732.9L651.2,737.7L652.2,744.5ZM638.3,733.5L642.2,737.3L641.3,742.7L646.1,740.2L650.9,742.7L650,737.3L653.9,733.5L648.5,732.7L646.1,727.8L643.7,732.7L638.3,733.5Z" style="fill:rgb(38,17,52);fill-rule:nonzero;"/>
                                    </g>
                                </g>
                            </g>
                            <g>
                                <g>
                                    <g>
                                        <path d="M675.2,726.7L677.9,732.3L684,733.2L679.6,737.5L680.6,743.6L675.2,740.7L669.7,743.6L670.7,737.5L666.3,733.2L672.4,732.3L675.2,726.7Z" style="fill:rgb(250,211,56);fill-rule:nonzero;"/>
                                    </g>
                                </g>
                                <g>
                                    <g>
                                        <path d="M681.3,744.5L675.2,741.3L669.1,744.5L670.3,737.7L665.3,732.9L672.2,731.9L675.3,725.7L678.4,731.9L685.3,732.9L680.3,737.7L681.3,744.5ZM675.2,740.1L680,742.6L679.1,737.2L683,733.4L677.6,732.6L675.2,727.7L672.8,732.6L667.4,733.4L671.3,737.2L670.4,742.6L675.2,740.1Z" style="fill:rgb(38,17,52);fill-rule:nonzero;"/>
                                    </g>
                                </g>
                            </g>
                            <g>
                                <g>
                                    <g>
                                        <path d="M690.6,477.2L681.4,477.2L681.4,477L596.3,477L556,496.7L567.6,529.3L596.1,517.7L632.8,517.3L690.7,517.9L719.2,529.5L730.8,496.9L690.6,477.2Z" style="fill:rgb(38,17,52);fill-rule:nonzero;"/>
                                    </g>
                                </g>
                                <g>
                                    <g>
                                        <path d="M719.5,530.1L690.6,518.3L632.7,517.7L596.1,518.1L567.2,529.9L555.3,496.4L596.1,476.5L681.8,476.5L681.8,476.7L690.6,476.7L731.4,496.6L719.5,530.1ZM632.8,516.8L690.9,517.4L719,528.8L730.3,497.1L690.5,477.7L680.9,477.7L680.9,477.5L596.4,477.5L556.6,496.9L567.9,528.6L596,517.2L632.8,516.8Z" style="fill:rgb(38,17,52);fill-rule:nonzero;"/>
                                    </g>
                                </g>
                            </g>
                            <g>
                                <g>
                                    <g>
                                        <path d="M690.6,477L690.6,603L596.1,603L596.1,477L615.9,477C617.1,491.1 628.9,502.2 643.4,502.2C657.8,502.2 669.6,491.1 670.9,477L690.6,477Z" style="fill:rgb(49,184,237);fill-rule:nonzero;"/>
                                    </g>
                                </g>
                                <g>
                                    <g>
                                        <path d="M691.2,603.5L595.6,603.5L595.6,476.5L616.4,476.5L616.4,477C617.6,490.9 629.4,501.7 643.4,501.7C657.3,501.7 669.2,490.8 670.4,477L670.4,476.5L691.2,476.5L691.2,603.5ZM596.6,602.5L690.1,602.5L690.1,477.5L671.3,477.5C669.8,491.6 657.7,502.7 643.4,502.7C629.1,502.7 616.9,491.7 615.5,477.5L596.6,477.5L596.6,602.5Z" style="fill:rgb(38,17,52);fill-rule:nonzero;"/>
                                    </g>
                                </g>
                            </g>
                            <g>
                                <g>
                                    <g>
                                        <path d="M677,477C676.2,494.9 661.4,509.2 643.3,509.2C625.2,509.2 610.4,494.9 609.6,477L615.8,477C617,491.1 628.8,502.2 643.3,502.2C657.7,502.2 669.5,491.1 670.8,477L677,477Z" style="fill:white;fill-rule:nonzero;"/>
                                    </g>
                                </g>
                                <g>
                                    <g>
                                        <path d="M643.4,509.6C625.1,509.6 610.1,495.3 609.2,477L609.2,476.5L616.4,476.5L616.4,477C617.6,490.9 629.4,501.7 643.4,501.7C657.3,501.7 669.2,490.8 670.4,477L670.4,476.5L677.6,476.5L677.6,477C676.7,495.3 661.7,509.6 643.4,509.6ZM610.2,477.5C611.3,495 625.7,508.7 643.3,508.7C660.9,508.7 675.4,495.1 676.4,477.5L671.2,477.5C669.7,491.6 657.6,502.7 643.3,502.7C629,502.7 616.8,491.7 615.4,477.5L610.2,477.5Z" style="fill:rgb(38,17,52);fill-rule:nonzero;"/>
                                    </g>
                                </g>
                            </g>
                            <g>
                                <g>
                                    <g>
                                        <rect x="596.1" y="557.7" width="94.5" height="9.6" style="fill:rgb(254,254,254);"/>
                                    </g>
                                </g>
                                <g>
                                    <g>
                                        <path d="M691.1,567.8L595.6,567.8L595.6,557.2L691.1,557.2L691.1,567.8ZM596.6,566.8L690.1,566.8L690.1,558.2L596.6,558.2L596.6,566.8Z" style="fill:rgb(38,17,52);fill-rule:nonzero;"/>
                                    </g>
                                </g>
                            </g>
                            <g>
                                <g>
                                    <g>
                                        <rect x="596.1" y="578.3" width="94.5" height="9.6" style="fill:rgb(254,254,254);"/>
                                    </g>
                                </g>
                                <g>
                                    <g>
                                        <path d="M691.1,588.4L595.6,588.4L595.6,577.8L691.1,577.8L691.1,588.4ZM596.6,587.4L690.1,587.4L690.1,578.8L596.6,578.8L596.6,587.4Z" style="fill:rgb(38,17,52);fill-rule:nonzero;"/>
                                    </g>
                                </g>
                            </g>
                            <g>
                                <g>
                                    <g>
                                        <g>
                                            <circle cx="760.8" cy="441.3" r="24.3" style="fill:rgb(254,254,254);"/>
                                        </g>
                                    </g>
                                    <g>
                                        <g>
                                            <path d="M760.8,466C747.2,466 736,454.9 736,441.2C736,427.5 747.1,416.4 760.8,416.4C774.5,416.4 785.6,427.5 785.6,441.2C785.6,454.9 774.4,466 760.8,466ZM760.8,417.5C747.7,417.5 737,428.2 737,441.3C737,454.4 747.7,465.1 760.8,465.1C773.9,465.1 784.6,454.4 784.6,441.3C784.6,428.2 773.8,417.5 760.8,417.5Z" style="fill:rgb(38,17,52);fill-rule:nonzero;"/>
                                        </g>
                                    </g>
                                </g>
                                <g>
                                    <g>
                                        <g>
                                            <path d="M767.7,429.1C764.4,429.1 761.6,431.3 760.7,434.3C759.8,431.3 757,429.1 753.7,429.1C749.7,429.1 746.4,432.4 746.4,436.4C746.4,437.7 746.8,438.9 747.4,440C747.7,440.5 748,440.9 748.4,441.3L760.4,457.6L772.8,441.6C773.3,441.1 773.7,440.6 774,440C774.6,438.9 775,437.7 775,436.4C775,432.4 771.7,429.1 767.7,429.1Z" style="fill:rgb(242,123,121);fill-rule:nonzero;"/>
                                        </g>
                                    </g>
                                    <g>
                                        <g>
                                            <path d="M760.4,458.4L748,441.6C747.6,441.2 747.3,440.7 747,440.2C746.3,439 746,437.7 746,436.3C746,432 749.5,428.5 753.8,428.5C756.8,428.5 759.5,430.2 760.8,432.8C762.1,430.2 764.8,428.5 767.8,428.5C772.1,428.5 775.6,432 775.6,436.3C775.6,437.6 775.2,439 774.6,440.2C774.2,440.8 773.8,441.4 773.3,441.9L760.4,458.4ZM753.8,429.6C750.1,429.6 747,432.6 747,436.4C747,437.6 747.3,438.7 747.9,439.8C748.2,440.2 748.5,440.6 748.8,441L760.4,456.8L772.4,441.3C772.9,440.8 773.3,440.3 773.6,439.8C774.2,438.8 774.5,437.6 774.5,436.4C774.5,432.7 771.5,429.6 767.7,429.6C764.7,429.6 762.1,431.5 761.2,434.4L760.7,436L760.2,434.4C759.4,431.6 756.8,429.6 753.8,429.6Z" style="fill:rgb(38,17,52);fill-rule:nonzero;"/>
                                        </g>
                                    </g>
                                </g>
                            </g>
                        </g>
                    </g>
                    <g id="Discount_Icon">
                        <g>
                            <g>
                                <circle cx="426.7" cy="606.7" r="30.3" style="fill:rgb(38,17,52);"/>
                            </g>
                        </g>
                        <g>
                            <g>
                                <g>
                                    <circle cx="422.3" cy="606.7" r="30.3" style="fill:rgb(250,211,56);"/>
                                </g>
                            </g>
                            <g>
                                <g>
                                    <path d="M422.3,637.5C405.3,637.5 391.5,623.7 391.5,606.7C391.5,589.7 405.3,575.9 422.3,575.9C439.3,575.9 453.1,589.7 453.1,606.7C453.1,623.7 439.3,637.5 422.3,637.5ZM422.3,576.8C405.9,576.8 392.5,590.2 392.5,606.6C392.5,623 405.9,636.4 422.3,636.4C438.7,636.4 452.1,623 452.1,606.6C452.1,590.2 438.7,576.8 422.3,576.8Z" style="fill:rgb(38,17,52);fill-rule:nonzero;"/>
                                </g>
                            </g>
                        </g>
                        <g>
                            <g>
                                <g>
                                    <path d="M408.7,605.6C407.5,604.2 406.9,602.4 406.9,600.2C406.9,598 407.5,596.2 408.7,594.8C409.9,593.4 411.4,592.8 413.4,592.8C415.3,592.8 416.9,593.5 418.1,594.8C419.3,596.2 419.9,597.9 419.9,600.2C419.9,602.4 419.3,604.2 418.1,605.6C416.9,607 415.3,607.6 413.4,607.6C411.5,607.7 409.9,607 408.7,605.6ZM415.9,603.8C416.5,603 416.8,601.8 416.8,600.3C416.8,598.8 416.5,597.6 415.9,596.8C415.3,596 414.5,595.6 413.4,595.6C412.4,595.6 411.6,596 411,596.9C410.4,597.7 410.1,598.9 410.1,600.4C410.1,601.9 410.4,603 411,603.9C411.6,604.7 412.4,605.2 413.4,605.2C414.5,605 415.3,604.6 415.9,603.8ZM429.6,593.1L433.4,593.1L414.9,620.1L411.1,620.1L429.6,593.1ZM426.5,618.4C425.3,617 424.7,615.2 424.7,613C424.7,610.8 425.3,609 426.5,607.6C427.7,606.2 429.2,605.6 431.2,605.6C433.1,605.6 434.7,606.3 435.9,607.6C437.1,609 437.7,610.8 437.7,613C437.7,615.2 437.1,617 435.9,618.4C434.7,619.8 433.1,620.4 431.2,620.4C429.2,620.4 427.7,619.8 426.5,618.4ZM433.6,616.5C434.2,615.7 434.5,614.5 434.5,613C434.5,611.5 434.2,610.4 433.6,609.5C433,608.7 432.2,608.2 431.2,608.2C430.2,608.2 429.4,608.6 428.8,609.4C428.2,610.2 427.9,611.4 427.9,612.9C427.9,614.4 428.2,615.6 428.8,616.4C429.4,617.2 430.2,617.6 431.2,617.6C432.2,617.7 433,617.3 433.6,616.5Z" style="fill:rgb(38,17,52);fill-rule:nonzero;"/>
                                </g>
                            </g>
                        </g>
                    </g>
                    <g id="Package_1_">
                        <g>
                            <g>
                                <g>
                                    <path d="M1053.6,757.4L1046.4,861.1L1117.6,861.1L1117.6,757.4L1053.6,757.4Z" style="fill:rgb(242,123,121);fill-rule:nonzero;"/>
                                </g>
                            </g>
                            <g>
                                <g>
                                    <path d="M1118.1,861.6L1045.8,861.6L1053,756.9L1118.1,756.9L1118.1,861.6ZM1047,860.6L1117.2,860.6L1117.2,757.9L1054,757.9L1047,860.6Z" style="fill:rgb(38,17,52);fill-rule:nonzero;"/>
                                </g>
                            </g>
                        </g>
                        <g>
                            <g>
                                <g>
                                    <path d="M1114.8,757.4L1109.7,861.1L1138,861.1L1132.5,757.4L1114.8,757.4Z" style="fill:rgb(38,17,52);fill-rule:nonzero;"/>
                                </g>
                            </g>
                            <g>
                                <g>
                                    <path d="M1138.6,861.6L1109.2,861.6L1109.2,861.1L1114.4,756.9L1133,756.9L1133,757.4L1138.6,861.6ZM1110.2,860.6L1137.5,860.6L1132,757.8L1115.3,757.8L1110.2,860.6Z" style="fill:rgb(38,17,52);fill-rule:nonzero;"/>
                                </g>
                            </g>
                        </g>
                        <g>
                            <g>
                                <path d="M1074.8,787C1072.9,787 1070,786.6 1067.6,784.5C1065.4,782.5 1064.1,779.4 1063.9,775.3C1063.6,770.5 1064.9,757.3 1069.4,754.8C1070.8,754.1 1072,753.9 1073,754.3C1074.7,755 1075.3,757.1 1075.4,757.2L1074.4,757.5C1074.4,757.5 1073.9,755.8 1072.6,755.3C1071.8,755 1070.9,755.1 1069.8,755.7C1066.2,757.7 1064.5,769.5 1064.8,775.2C1065,779 1066.1,781.9 1068.1,783.7C1070.5,785.9 1073.6,786 1075.3,785.9C1088.8,785.2 1091.1,773.8 1091.4,771.5C1091.6,770.3 1091.7,769.3 1091.9,768.2C1093.4,757.4 1094,752.9 1098.8,753.4C1102.4,753.8 1103.7,756.9 1103.8,757.1L1102.9,757.5C1102.9,757.4 1101.8,754.8 1098.7,754.5C1095.1,754.1 1094.5,757.3 1092.9,768.4C1092.8,769.4 1092.6,770.5 1092.4,771.7C1092.1,774.1 1089.6,786.2 1075.3,786.9C1075.3,787 1075.1,787 1074.8,787Z" style="fill:rgb(38,17,52);fill-rule:nonzero;"/>
                            </g>
                        </g>
                        <g>
                            <g>
                                <g>
                                    <path d="M1039.5,800.3L1093.1,800.3L1089.1,861.1L1024,861.1L1039.5,800.3Z" style="fill:rgb(49,184,237);fill-rule:nonzero;"/>
                                </g>
                            </g>
                            <g>
                                <g>
                                    <path d="M1089.5,861.6L1023.3,861.6L1039.1,799.8L1093.6,799.8L1089.5,861.6ZM1024.6,860.6L1088.6,860.6L1092.6,800.8L1039.9,800.8L1024.6,860.6Z" style="fill:rgb(38,17,52);fill-rule:nonzero;"/>
                                </g>
                            </g>
                        </g>
                        <g>
                            <g>
                                <g>
                                    <path d="M1098.9,800.2L1091.2,800.2L1076.2,861.1L1097.3,861.1L1098.9,800.2Z" style="fill:rgb(38,17,52);fill-rule:nonzero;"/>
                                </g>
                            </g>
                            <g>
                                <g>
                                    <path d="M1097.8,861.6L1075.6,861.6L1090.9,799.7L1099.5,799.7L1097.8,861.6ZM1076.8,860.6L1096.8,860.6L1098.4,800.7L1091.6,800.7L1076.8,860.6Z" style="fill:rgb(38,17,52);fill-rule:nonzero;"/>
                                </g>
                            </g>
                        </g>
                        <g>
                            <g>
                                <path d="M1057.3,821.1C1047.9,821.1 1047.6,813.7 1047.5,809.8L1047.5,808.9C1047,799.6 1050,797.8 1051.3,797.5C1055.4,796.5 1056.7,800.3 1056.7,800.3L1055.8,800.6C1055.8,800.5 1054.7,797.6 1051.6,798.4C1050.8,798.6 1048,800 1048.5,808.8L1048.5,809.7C1048.6,813.6 1048.9,820.1 1057.3,820.1L1057.4,820.1C1060.2,820.1 1064.2,819.3 1067.2,812.4L1072.4,800.1C1072.5,799.9 1074.3,796.2 1077.6,796.9C1080.4,797.5 1081,800.1 1081.1,800.2L1080.1,800.4C1080.1,800.3 1079.6,798.3 1077.4,797.8C1074.9,797.3 1073.4,800.4 1073.3,800.5L1068.1,812.8C1065.7,818.3 1062.1,821 1057.3,821.1C1057.4,821.1 1057.4,821.1 1057.3,821.1Z" style="fill:rgb(38,17,52);fill-rule:nonzero;"/>
                            </g>
                        </g>
                        <g>
                            <g>
                                <path d="M1138,861.8L1123.4,844.2L1123.4,757.4L1124.4,757.4L1124.4,843.9L1138.8,861.2L1138,861.8Z" style="fill:white;fill-rule:nonzero;"/>
                            </g>
                        </g>
                        <g transform="matrix(0.6508,-0.7593,0.7593,0.6508,-257.121,1145.71)">
                            <g>
                                <rect x="1106" y="851.9" width="21.9" height="1" style="fill:white;"/>
                            </g>
                        </g>
                        <g>
                            <g>
                                <path d="M1096.7,861L1088.7,848.1L1088.7,848L1094.2,800.1L1095.2,800.2L1089.7,847.9L1097.5,860.4L1096.7,861Z" style="fill:white;fill-rule:nonzero;"/>
                            </g>
                        </g>
                        <g transform="matrix(0.7071,-0.7071,0.7071,0.7071,-286.966,1015.92)">
                            <g>
                                <rect x="1073.9" y="853.9" width="18" height="1" style="fill:white;"/>
                            </g>
                        </g>
                    </g>
                </g>
                <circle cx="852.14" cy="762.15" r="8.6" style="fill:rgb(75,54,157);"/>
            </g>
        </g>
    </g>
    <g id="Background">
        <g id="Mop" transform="matrix(1,0,0,1,51,-13)">
            <g>
                <path d="M1191.12,521.42C1189.8,521.42 1188.48,520.96 1187.41,520.02L913,279.01C910.67,276.96 910.44,273.41 912.49,271.08C914.54,268.75 918.09,268.51 920.42,270.57L1194.83,511.59C1197.16,513.64 1197.39,517.19 1195.34,519.52C1194.24,520.78 1192.68,521.42 1191.12,521.42Z" style="fill:rgb(151,140,255);fill-rule:nonzero;"/>
            </g>
            <g>
                <path d="M878.48,319.69C876.09,319.69 873.71,318.78 871.88,316.97C868.21,313.32 868.19,307.39 871.83,303.72L947.5,227.5C951.15,223.83 957.07,223.81 960.75,227.45C964.42,231.1 964.44,237.03 960.8,240.7L885.13,316.92C883.29,318.77 880.89,319.69 878.48,319.69Z" style="fill:rgb(151,140,255);fill-rule:nonzero;"/>
            </g>
        </g>
        <g id="Ladder" transform="matrix(1,0,0,1,51,-13)">
            <g transform="matrix(0.9973,-0.0732,0.0732,0.9973,-52.8389,83.4945)">
                <rect x="1110.06" y="495.8" width="3.75" height="532.68" style="fill:rgb(75,54,157);"/>
            </g>
            <g transform="matrix(0.9973,-0.0732,0.0732,0.9973,-52.6041,89.8978)">
                <rect x="1197.48" y="495.8" width="3.75" height="532.68" style="fill:rgb(75,54,157);"/>
            </g>
            <g>
                <rect x="1096.29" y="547.33" width="87.42" height="3.75" style="fill:rgb(75,54,157);"/>
            </g>
            <g>
                <rect x="1100.79" y="593.69" width="87.42" height="3.75" style="fill:rgb(75,54,157);"/>
            </g>
            <g>
                <rect x="1105.3" y="640.06" width="87.42" height="3.75" style="fill:rgb(75,54,157);"/>
            </g>
            <g>
                <rect x="1105.3" y="686.43" width="87.42" height="3.75" style="fill:rgb(75,54,157);"/>
            </g>
            <g>
                <rect x="1109.8" y="732.79" width="87.42" height="3.75" style="fill:rgb(75,54,157);"/>
            </g>
            <g>
                <rect x="1114.3" y="779.16" width="87.42" height="3.75" style="fill:rgb(75,54,157);"/>
            </g>
            <g>
                <rect x="1114.3" y="825.52" width="87.42" height="3.75" style="fill:rgb(75,54,157);"/>
            </g>
            <g>
                <rect x="1118.8" y="871.89" width="87.42" height="3.75" style="fill:rgb(75,54,157);"/>
            </g>
        </g>
    </g>
    <g transform="matrix(1,0,0,1,51,-13)">
        <g id="Characters">
            <g id="Woman">
                <g id="Head">
                    <g id="Face">
                        <path d="M1189.82,445.37L1191.21,471.24L1211.46,479.05C1211.46,479.05 1199.29,461.24 1201.35,445.38C1203.4,429.5 1189.82,445.37 1189.82,445.37Z" style="fill:rgb(212,167,154);fill-rule:nonzero;"/>
                        <path d="M1171.73,392.44C1171.73,392.44 1167.32,398.28 1171.62,416.2C1175.92,434.12 1182.9,449.41 1188.3,448.34C1203.23,445.36 1208.47,434.81 1213.64,425.75C1219.99,414.65 1207.39,387.56 1207.39,387.56L1195.48,381.14L1171.73,392.44Z" style="fill:rgb(234,194,171);fill-rule:nonzero;"/>
                    </g>
                    <path id="Hair" d="M1174.76,378.45C1165.26,387.48 1162.1,401.36 1161.71,414.46C1161.51,421.09 1161.91,427.8 1163.72,434.18C1165.73,441.3 1169.43,447.8 1172.49,454.53C1173.02,455.7 1173.54,456.93 1173.43,458.21C1173.29,459.73 1172.29,461.01 1171.43,462.27C1165.73,470.68 1165.76,482.59 1171.51,490.97C1173.53,493.91 1176.37,496.53 1179.87,497.18C1184.23,498 1190.39,496.53 1191.86,500.72C1192.59,502.81 1191.42,505.19 1192.11,507.29C1193.13,510.38 1197.31,510.9 1200.51,510.28C1203.71,509.66 1207.25,508.54 1210.03,510.24C1213.68,512.48 1213.8,518.37 1217.6,520.34C1219.03,521.08 1220.71,521.09 1222.33,521.09C1228.97,521.08 1231.95,526.12 1238.59,526.11C1241.56,526.1 1248.39,520.98 1250.83,519.29C1253.27,517.61 1254.34,513.65 1252.14,511.67C1250.01,509.75 1246.11,510.61 1244.4,508.31C1241.67,504.61 1248.5,500 1247.37,495.54C1246.99,494.03 1245.71,492.84 1245.43,491.31C1245.1,489.49 1246.25,487.77 1246.78,485.99C1248.52,480.19 1243.64,474.64 1238.93,470.84C1234.22,467.04 1228.74,462.65 1228.76,456.6C1228.78,449.45 1236.62,444.39 1237.39,437.27C1238.21,429.67 1230.68,423.1 1231.32,415.49C1231.71,410.85 1235.1,406.89 1235.59,402.26C1236.16,396.92 1232.82,392.04 1229.64,387.71C1227.26,384.47 1224.82,381.17 1221.52,378.89C1217.05,375.8 1213.57,377.87 1209.15,376.69C1205.21,375.64 1202.41,372.16 1197.97,371.36C1189.81,369.89 1180.74,372.77 1174.76,378.45Z" style="fill:rgb(75,54,157);fill-rule:nonzero;"/>
                </g>
                <g id="Leg_1_">
                    <path id="Skin_1_" d="M1253.61,738.19L1277.91,762.71L1286.94,755.43L1260.07,731.36C1260.07,731.35 1254.57,734.61 1253.61,738.19Z" style="fill:rgb(212,167,154);fill-rule:nonzero;"/>
                    <path id="Shoe_1_" d="M1264.6,807.8C1264.6,807.8 1271.44,802.4 1280.99,789.77C1290.55,777.13 1300.6,762.64 1300.37,758.68C1300.14,754.72 1284.51,742.17 1281.66,746.59C1278.81,751.01 1284.09,756.87 1273.34,760.98C1264.13,764.5 1269.91,775.8 1264.86,789.03C1259.81,802.25 1257.75,807.6 1264.6,807.8Z" style="fill:rgb(243,170,2);fill-rule:nonzero;"/>
                    <path id="Leg_3_" d="M1236.56,677.03C1238.94,686.41 1239.63,696.57 1244.77,704.24C1252.58,715.9 1266.29,719.25 1278.83,721.8C1275.25,733.27 1268.35,742.87 1261.59,752.2C1256.59,759.1 1251.47,766.12 1244.8,770.75C1242.54,761.84 1240.25,752.84 1236.22,744.82C1232.62,737.66 1227.74,731.49 1223.51,724.8C1210.95,704.93 1204.44,680.92 1198.13,657.39C1194.84,645.11 1170.98,548.97 1203.48,571.13C1225.54,586.17 1220.27,612.79 1236.56,677.03Z" style="fill:rgb(75,54,157);fill-rule:nonzero;"/>
                </g>
                <g id="Leg">
                    <path id="Skin" d="M1179.1,773.99L1171.69,807.7L1182.71,811.34L1188.35,775.71C1188.35,775.71 1182.62,772.86 1179.1,773.99Z" style="fill:rgb(234,194,171);fill-rule:nonzero;"/>
                    <path id="Shoe" d="M1126.58,820.99C1126.58,820.99 1134.82,823.8 1150.62,824.98C1166.42,826.16 1184.05,826.74 1187.26,824.39C1190.47,822.04 1192.53,802.11 1187.26,802.11C1181.99,802.11 1179.95,809.73 1170.66,802.93C1162.7,797.1 1156.35,808.09 1142.5,811.02C1128.64,813.96 1123.03,815.13 1126.58,820.99Z" style="fill:rgb(253,197,16);fill-rule:nonzero;"/>
                    <path id="Leg_2_" d="M1150.45,781.51C1151.05,780.31 1152.5,779.47 1153.77,778.59C1165.34,770.51 1163.5,756.95 1162.48,745.14C1160.06,717.13 1166.31,689.44 1169.74,661.79C1173.08,634.8 1172.09,607.44 1167.58,580.64C1165.94,570.9 1163.78,555.87 1178.44,559.62C1185.39,561.4 1192.34,561.57 1199.43,560.79C1203.16,560.38 1199.47,558.94 1203.16,560.38C1215.72,565.28 1206.11,577.9 1202.94,586.17C1196.63,602.64 1202.63,634.7 1200.65,652.45C1197.85,677.61 1196.18,698.5 1197.59,723.73C1198.28,736.09 1199.21,748.44 1200.07,760.79C1200.57,767.99 1205.55,784.03 1201.14,790.24C1195.08,798.77 1171.03,789.69 1162.86,788.97C1156.7,788.43 1148.39,785.58 1150.45,781.51Z" style="fill:rgb(90,84,255);fill-rule:nonzero;"/>
                </g>
                <path id="Arm" d="M1148.7,494.9C1137.28,503.53 1121.86,518.84 1110.87,501.04C1105.12,491.72 1101.06,481.49 1095.69,471.95C1091.88,462.06 1087.31,451.62 1087.66,440.8C1088.02,429.75 1087.37,414.85 1086.31,412.14C1085.25,409.43 1072.57,397.53 1072.41,402.48C1072.25,407.43 1079.49,425.6 1070.07,417C1067.24,414.42 1068.91,419.2 1069.87,424.95C1070.83,430.7 1078.5,438.31 1078.5,438.31C1086.11,470.29 1083.9,508.19 1119.27,523.89C1129.09,528.25 1144.54,514.16 1152.42,509.32C1155.21,507.6 1182.82,488.63 1183.56,489.36C1180.31,486.17 1177.06,482.97 1173.81,479.78C1173.03,479.01 1172.18,478.21 1171.1,478.05C1169.84,477.86 1168.64,478.59 1167.6,479.32C1162.41,482.96 1157.87,487.42 1153,491.48C1151.6,492.65 1150.17,493.79 1148.7,494.9Z" style="fill:rgb(234,194,171);fill-rule:nonzero;"/>
                <g id="Body_1_">
                    <path d="M1165.66,565.99C1165.66,564.8 1163.68,533.98 1168.03,514.22C1172.38,494.46 1168.03,477.47 1183.05,465.61C1198.07,453.75 1210.32,469.56 1214.27,477.86C1218.22,486.16 1214.65,528.57 1215.21,542.53C1215.78,556.8 1215.21,554.22 1218.36,569.58C1220.37,579.4 1239.17,602.48 1215.44,595.57C1207.38,593.22 1190.48,592.21 1183.58,589.77C1177.41,587.59 1170.1,586.05 1165.22,581C1163.68,579.42 1165.66,565.99 1165.66,565.99Z" style="fill:rgb(215,56,78);fill-rule:nonzero;"/>
                    <path d="M1157.27,481.46C1157.27,481.46 1185.01,451.89 1195.65,465.31C1206.29,478.73 1168.63,506.4 1168.63,506.4L1151.54,484.18L1157.27,481.46Z" style="fill:rgb(244,78,78);fill-rule:nonzero;"/>
                </g>
            </g>
        </g>
    </g>
    <g transform="matrix(1,0,0,1,-89.86,93.78)">
        <text x="512px" y="1009.54px" style="font-family:'HelveticaNeue', 'Helvetica Neue';font-size:96px;fill:rgb(112,118,201);">Image Coming Soon</text>
    </g>
</svg>
