<?xml version="1.0" encoding="UTF-8" standalone="no"?>
<!DOCTYPE svg PUBLIC "-//W3C//DTD SVG 1.1//EN" "http://www.w3.org/Graphics/SVG/1.1/DTD/svg11.dtd">
<svg width="100%" height="100%" viewBox="0 0 1800 1201" version="1.1" xmlns="http://www.w3.org/2000/svg" xmlns:xlink="http://www.w3.org/1999/xlink" xml:space="preserve" xmlns:serif="http://www.serif.com/" style="fill-rule:evenodd;clip-rule:evenodd;stroke-linejoin:round;stroke-miterlimit:2;">
    <g id="Nature">
        <g id="Ground" transform="matrix(1.35063,0,0,1.35063,-303.999,-211.53)">
            <ellipse cx="846.62" cy="999.15" rx="575.54" ry="32.04" style="fill:rgb(227,229,252);"/>
        </g>
        <g id="Plants" transform="matrix(1.24178,0,0,1.24178,-167.256,-124.077)">
            <path d="M1456.75,978.96C1492.82,977.04 1532.76,967.65 1554.83,944.83C1565.7,933.59 1570.72,919.21 1567.77,903.23C1564.44,885.18 1549.98,868.82 1546.78,850.71C1543.48,832.06 1558.1,825.26 1564.74,810.54C1572.26,793.89 1568.4,772.76 1554.2,756.12C1547.02,747.71 1537.36,740.6 1526.43,736.21C1514.77,731.53 1501.73,732.26 1495.21,720.45C1491.27,713.31 1491.66,705.57 1493,698.47C1496.44,680.3 1505.45,664 1512.68,647.13C1515.56,640.43 1517.83,632.08 1511.92,625.6C1499.93,612.47 1470.77,615.68 1458.12,620.7C1444.54,626.09 1434.76,636.78 1431.69,649.58C1428.97,660.9 1430.71,674.68 1420.99,682.05C1414.27,687.15 1403.91,687.55 1395.04,689.93C1379.13,694.2 1377.7,707.14 1381.96,720.71C1387.11,737.12 1392.48,753.54 1382.69,767.53C1374.08,779.84 1357.42,786.1 1346.64,796.99C1343.02,800.65 1340.01,805.06 1340.02,810.2C1340.07,828.39 1366.1,841.48 1368.18,860.58C1369.18,869.75 1367.33,878.54 1366.14,887.38C1362.08,917.53 1373.66,948.48 1406.25,970.19C1436.49,990.34 1478.2,995.24 1507.39,982.07" style="fill:rgb(227,229,252);fill-rule:nonzero;"/>
            <g>
                <path d="M1438.22,972.27C1438.16,972.27 1438.1,972.27 1438.04,972.26C1437.01,972.16 1436.25,971.25 1436.35,970.22L1457.47,747.42C1457.57,746.39 1458.57,745.6 1459.51,745.73C1460.54,745.83 1461.3,746.74 1461.2,747.77L1440.08,970.57C1439.99,971.54 1439.18,972.27 1438.22,972.27Z" style="fill:white;fill-rule:nonzero;"/>
            </g>
            <g>
                <path d="M1448.78,860.87C1448.06,860.87 1447.37,860.45 1447.06,859.74C1446.65,858.79 1447.08,857.69 1448.03,857.27L1511.05,829.8C1512,829.39 1513.1,829.82 1513.52,830.77C1513.93,831.72 1513.5,832.82 1512.55,833.24L1449.53,860.71C1449.28,860.82 1449.03,860.87 1448.78,860.87Z" style="fill:white;fill-rule:nonzero;"/>
            </g>
            <g>
                <path d="M1452.52,814.74C1451.8,814.74 1451.11,814.32 1450.8,813.61C1450.39,812.66 1450.82,811.56 1451.77,811.14L1514.79,783.67C1515.74,783.27 1516.84,783.69 1517.26,784.64C1517.67,785.59 1517.24,786.69 1516.29,787.11L1453.27,814.58C1453.03,814.69 1452.78,814.74 1452.52,814.74Z" style="fill:white;fill-rule:nonzero;"/>
            </g>
            <g>
                <path d="M1450.8,839.53C1450.55,839.53 1450.29,839.48 1450.05,839.37L1393.64,814.59C1392.69,814.17 1392.26,813.07 1392.68,812.12C1393.1,811.17 1394.21,810.76 1395.15,811.16L1451.56,835.94C1452.51,836.36 1452.94,837.46 1452.52,838.41C1452.21,839.11 1451.52,839.53 1450.8,839.53Z" style="fill:white;fill-rule:nonzero;"/>
            </g>
            <g>
                <path d="M1403.73,922.42C1403.93,921.72 1404.1,921.02 1404.26,920.31C1406.38,910.41 1403.24,901.03 1395.12,895.25C1388.71,890.68 1378.28,889.27 1375.78,880.6C1374.61,876.54 1375.98,872.19 1377.7,868.33C1379.42,864.47 1381.54,860.65 1381.93,856.44C1382.32,852.23 1380.39,847.41 1376.36,846.11C1373.44,845.17 1370.27,846.26 1367.22,845.96C1355.85,844.81 1359.73,832 1356.63,824.69C1355.31,821.59 1352.54,818.89 1349.18,818.61C1345.6,818.3 1342.42,820.65 1339.3,822.42C1336.18,824.19 1331.96,825.37 1329.22,823.05C1326.35,820.62 1327.03,816.03 1328.44,812.53C1331.89,803.94 1338.04,796.73 1344.53,790.13C1347.2,787.42 1350.09,784.5 1350.63,780.73C1351.32,775.95 1347.89,771.46 1343.89,768.76C1334.04,762.1 1322.25,757.59 1310.79,754.69C1298.47,751.57 1271.5,750.92 1272.9,771.03C1273.74,783.02 1291.62,802.03 1277.92,811.94C1271.21,816.79 1255.48,815.25 1259.81,827.75C1260.71,830.36 1262.05,832.83 1262.67,835.53C1265.07,845.85 1256.69,853.93 1256.26,863.81C1255.9,872.08 1263.96,878.68 1269.46,883.64C1271.96,885.89 1274.21,888.99 1273.76,892.32C1273.5,894.27 1272.35,895.98 1271.81,897.88C1270.81,901.4 1272.01,905.13 1272.25,908.78C1272.77,916.58 1265.58,917.66 1263,923.86C1257.31,937.54 1284.51,937.03 1290.26,944.39C1295.03,950.51 1293.99,958.92 1297.48,965.6C1305.02,980.02 1328.78,983.72 1343.22,984.93C1352.76,985.73 1363.02,983.99 1370.21,977.67C1378.07,970.76 1380.64,960.32 1385.23,951.33C1390.6,940.74 1400.36,934.24 1403.73,922.42Z" style="fill:rgb(167,173,255);fill-rule:nonzero;"/>
                <path d="M1415.39,965.01C1411.34,955.38 1412.51,944.46 1413.75,934.08C1414.16,930.61 1414.62,927.03 1416.43,924.04C1418.1,921.29 1421.27,919.1 1424.6,919.6C1424.98,919.66 1425.37,919.74 1425.73,919.61C1426.36,919.37 1426.55,918.59 1426.63,917.93C1427.17,913.44 1426.15,909.15 1426.13,904.69C1426.11,898.83 1431.81,903.3 1433.55,905.46C1434.9,907.14 1436,909.01 1437.38,910.66C1437.54,910.85 1437.78,911.06 1438.01,910.97C1438.24,910.88 1438.27,910.56 1438.27,910.31C1438.28,909.11 1438.65,907.91 1439.31,906.91C1440.03,905.82 1441.08,904.98 1441.93,903.98C1444.47,901.02 1443.4,895.67 1445.35,892.07C1447.21,888.63 1450.62,885.6 1454.8,886.46C1461.7,887.88 1462.69,897.36 1461.33,904.27C1460.71,907.43 1460.29,911.47 1463.03,913.15C1465.94,914.93 1482.14,901.59 1487.72,898.07C1490.28,896.46 1493.8,895 1496.1,896.96C1498.32,898.86 1497.58,902.43 1496.41,905.11C1495.07,908.18 1501.34,910.24 1502.91,912.22C1508.71,919.51 1505.55,931.9 1501.64,939.23C1497.55,946.9 1491.5,953.62 1485.08,959.41C1479.82,964.16 1491.55,975.36 1486.94,980.8C1479.49,989.57 1449.01,988.86 1437.24,987.74C1427.23,986.78 1421.52,978.17 1417.54,969.83C1416.78,968.24 1416.07,966.63 1415.39,965.01Z" style="fill:rgb(244,78,78);fill-rule:nonzero;"/>
                <g>
                    <path d="M1427.99,984.82C1427.65,984.82 1427.31,984.73 1427,984.54C1426.12,983.99 1425.85,982.84 1426.4,981.96L1460.59,927.15C1461.14,926.27 1462.31,926.01 1463.17,926.55C1464.05,927.1 1464.32,928.25 1463.77,929.13L1429.58,983.94C1429.22,984.5 1428.61,984.82 1427.99,984.82Z" style="fill:white;fill-rule:nonzero;"/>
                </g>
                <g>
                    <path d="M1453.2,944.38C1452.3,944.38 1451.5,943.72 1451.35,942.8C1451.19,941.78 1451.88,940.82 1452.91,940.66L1471.65,937.68C1472.68,937.5 1473.64,938.21 1473.8,939.24C1473.96,940.26 1473.27,941.22 1472.24,941.38L1453.5,944.36C1453.4,944.38 1453.3,944.38 1453.2,944.38Z" style="fill:white;fill-rule:nonzero;"/>
                </g>
                <g>
                    <path d="M1361.91,990.52C1361.13,990.52 1360.41,990.03 1360.14,989.26L1305.95,832.14C1305.61,831.16 1306.13,830.09 1307.11,829.76C1308.08,829.42 1309.16,829.94 1309.49,830.92L1363.68,988.04C1364.02,989.02 1363.5,990.09 1362.52,990.42C1362.32,990.48 1362.11,990.52 1361.91,990.52Z" style="fill:white;fill-rule:nonzero;"/>
                </g>
                <g>
                    <path d="M1339.75,930C1339.69,930 1339.62,930 1339.56,929.99L1304.29,926.46C1303.26,926.36 1302.51,925.44 1302.61,924.41C1302.71,923.38 1303.65,922.64 1304.66,922.73L1339.93,926.26C1340.96,926.36 1341.71,927.28 1341.61,928.31C1341.51,929.28 1340.7,930 1339.75,930Z" style="fill:white;fill-rule:nonzero;"/>
                </g>
                <g>
                    <path d="M1325.15,883.68C1325.04,883.68 1324.92,883.67 1324.81,883.65L1294.9,878.14C1293.88,877.95 1293.21,876.98 1293.4,875.96C1293.59,874.94 1294.55,874.27 1295.58,874.46L1325.49,879.97C1326.51,880.16 1327.18,881.13 1326.99,882.15C1326.83,883.05 1326.04,883.68 1325.15,883.68Z" style="fill:white;fill-rule:nonzero;"/>
                </g>
                <g>
                    <path d="M1332.42,904.66C1331.96,904.66 1331.5,904.49 1331.14,904.16C1330.39,903.45 1330.35,902.27 1331.05,901.51L1355.85,875.02C1356.56,874.27 1357.74,874.23 1358.5,874.93C1359.25,875.64 1359.29,876.82 1358.59,877.58L1333.79,904.07C1333.42,904.46 1332.92,904.66 1332.42,904.66Z" style="fill:white;fill-rule:nonzero;"/>
                </g>
            </g>
        </g>
    </g>
    <g transform="matrix(1.35063,0,0,1.35063,-303.999,-211.53)">
        <g id="UI_1_">
            <g id="E-commerce_Mobile_1_">
                <g>
                    <path d="M493.47,817.89L275.97,817.89C251.24,817.89 231.01,797.66 231.01,772.93L231.01,240.55C231.01,215.82 251.24,195.59 275.97,195.59L493.47,195.59C518.2,195.59 538.43,215.82 538.43,240.55L538.43,772.92C538.43,797.65 518.2,817.89 493.47,817.89Z" style="fill:rgb(227,229,252);fill-rule:nonzero;"/>
                    <path d="M473.96,759.83L295.47,759.83C270.74,759.83 250.51,739.6 250.51,714.87L250.51,261.47C250.51,236.74 270.74,216.51 295.47,216.51L473.96,216.51C498.69,216.51 518.92,236.74 518.92,261.47L518.92,714.87C518.93,739.59 498.69,759.83 473.96,759.83Z" style="fill:white;fill-rule:nonzero;"/>
                    <path d="M413.68,209.82L355.76,209.82C354.35,209.82 353.2,208.67 353.2,207.26C353.2,205.85 354.35,204.7 355.76,204.7L413.68,204.7C415.09,204.7 416.24,205.85 416.24,207.26C416.24,208.67 415.08,209.82 413.68,209.82Z" style="fill:rgb(227,229,252);fill-rule:nonzero;"/>
                    <circle cx="384.72" cy="786.94" r="15.95" style="fill:rgb(167,173,255);"/>
                    <path d="M453.3,695L316.13,695C300.56,695 287.81,682.26 287.81,666.68C287.81,651.11 300.55,638.36 316.13,638.36L453.3,638.36C468.87,638.36 481.62,651.1 481.62,666.68C481.62,682.25 468.88,695 453.3,695Z" style="fill:rgb(244,78,78);fill-rule:nonzero;"/>
                    <path d="M483.72,304.97L401.08,304.97C397.31,304.97 394.23,301.89 394.23,298.12C394.23,294.35 397.31,291.27 401.08,291.27L483.72,291.27C487.49,291.27 490.57,294.35 490.57,298.12C490.57,301.89 487.49,304.97 483.72,304.97Z" style="fill:rgb(167,173,255);fill-rule:nonzero;"/>
                    <path d="M483.72,336.35L401.08,336.35C397.31,336.35 394.23,333.27 394.23,329.5C394.23,325.73 397.31,322.65 401.08,322.65L483.72,322.65C487.49,322.65 490.57,325.73 490.57,329.5C490.57,333.26 487.49,336.35 483.72,336.35Z" style="fill:rgb(167,173,255);fill-rule:nonzero;"/>
                    <g>
                        <path d="M383.54,596.97C382.67,596.26 382.53,594.96 383.25,594.09L402.04,571.02C402.75,570.15 404.05,570.01 404.92,570.73C405.79,571.44 405.93,572.74 405.21,573.61L386.42,596.68C385.71,597.55 384.41,597.68 383.54,596.97Z" style="fill:rgb(227,229,252);fill-rule:nonzero;"/>
                        <path d="M385.89,596.97C386.76,596.26 386.9,594.96 386.18,594.09L367.39,571.02C366.68,570.15 365.38,570.01 364.51,570.73C363.64,571.44 363.5,572.74 364.22,573.61L383.01,596.68C383.72,597.55 385.02,597.68 385.89,596.97Z" style="fill:rgb(227,229,252);fill-rule:nonzero;"/>
                    </g>
                    <g>
                        <g>
                            <path d="M351.92,291.91L311.06,291.91L311.06,288.16C311.06,273.57 320.22,261.7 331.49,261.7C342.76,261.7 351.92,273.57 351.92,288.16L351.92,291.91ZM318.82,284.42L344.15,284.42C342.93,275.86 337.62,269.2 331.48,269.2C325.35,269.19 320.04,275.86 318.82,284.42Z" style="fill:rgb(227,229,252);fill-rule:nonzero;"/>
                        </g>
                        <g>
                            <path d="M314.22,283.28C307.84,283.28 302.62,287.36 302.62,292.34L291.76,356.06C291.76,361.04 296.98,365.12 303.36,365.12L350.6,365.12L337.92,283.28L314.22,283.28Z" style="fill:rgb(167,173,255);fill-rule:nonzero;"/>
                            <path d="M367.85,356.05L358.54,292.33C358.54,287.35 353.32,283.27 346.94,283.27L337.91,283.27L350.59,365.11L356.24,365.11C362.63,365.11 367.85,361.04 367.85,356.05Z" style="fill:rgb(151,140,255);fill-rule:nonzero;"/>
                        </g>
                    </g>
                    <path d="M483.72,451.74L401.08,451.74C397.31,451.74 394.23,448.66 394.23,444.89C394.23,441.12 397.31,438.04 401.08,438.04L483.72,438.04C487.49,438.04 490.57,441.12 490.57,444.89C490.57,448.65 487.49,451.74 483.72,451.74Z" style="fill:rgb(167,173,255);fill-rule:nonzero;"/>
                    <path d="M483.72,483.11L401.08,483.11C397.31,483.11 394.23,480.03 394.23,476.26C394.23,472.49 397.31,469.41 401.08,469.41L483.72,469.41C487.49,469.41 490.57,472.49 490.57,476.26C490.57,480.03 487.49,483.11 483.72,483.11Z" style="fill:rgb(167,173,255);fill-rule:nonzero;"/>
                    <g>
                        <g>
                            <path d="M351.92,438.67L311.06,438.67L311.06,434.92C311.06,420.33 320.22,408.46 331.49,408.46C342.76,408.46 351.92,420.33 351.92,434.92L351.92,438.67ZM318.82,431.18L344.15,431.18C342.93,422.62 337.62,415.96 331.48,415.96C325.35,415.96 320.04,422.62 318.82,431.18Z" style="fill:rgb(227,229,252);fill-rule:nonzero;"/>
                        </g>
                        <g>
                            <path d="M314.22,430.04C307.84,430.04 302.62,434.12 302.62,439.1L291.76,502.82C291.76,507.8 296.98,511.88 303.36,511.88L350.6,511.88L337.92,430.04L314.22,430.04Z" style="fill:rgb(250,224,38);fill-rule:nonzero;"/>
                            <path d="M367.85,502.82L358.54,439.1C358.54,434.12 353.32,430.04 346.94,430.04L337.91,430.04L350.59,511.88L356.24,511.88C362.63,511.88 367.85,507.8 367.85,502.82Z" style="fill:rgb(253,197,16);fill-rule:nonzero;"/>
                        </g>
                    </g>
                    <circle cx="364.4" cy="357.77" r="16.24" style="fill:rgb(244,78,78);"/>
                    <circle cx="364.4" cy="506.74" r="16.24" style="fill:rgb(244,78,78);"/>
                </g>
                <path d="M384.72,628.42C378.71,628.42 373.79,623.5 373.79,617.49C373.79,611.48 378.71,606.56 384.72,606.56C390.73,606.56 395.65,611.48 395.65,617.49C395.65,623.51 390.73,628.42 384.72,628.42Z" style="fill:rgb(75,54,157);fill-rule:nonzero;"/>
            </g>
        </g>
    </g>
    <g transform="matrix(1.35063,0,0,1.35063,-303.999,-211.53)">
        <g id="Characters">
            <g id="Woman">
                <path id="Arm_1_" d="M725.44,495.76C753.84,463.79 816.02,396.51 841.57,362.35C842.91,360.56 844.28,358.67 844.55,356.48C844.89,353.71 843.42,351.08 842.22,348.54C839.39,342.56 837.88,336 837.83,329.42C837.8,326.16 838.18,322.73 840.09,320.04C842,317.36 845.83,315.74 848.85,317.17C848.29,327.74 850.2,338.43 854.39,348.2C857.1,343.9 859.81,339.61 862.51,335.31C865.27,349.65 853.51,362.25 847.21,375.49C844.02,382.2 802.97,429.21 798.73,435.35C775.12,469.52 769.04,482.34 745.55,503.67C739.32,509.33 732.87,515.13 724.91,518.1C716.95,521.08 707,520.6 700.96,514.74L725.44,495.76Z" style="fill:rgb(234,194,171);fill-rule:nonzero;"/>
                <g id="Leg_1_">
                    <path d="M1025.84,699.2L1049.51,745.73L1034.13,756.28L1012.44,706.07C1012.43,706.07 1020.08,699.16 1025.84,699.2Z" style="fill:rgb(234,194,171);fill-rule:nonzero;"/>
                    <path d="M1119.42,768.91C1119.42,768.91 1106.14,773.05 1080.7,774.63C1055.26,776.21 1021.39,773.1 1015.4,770.97C1006.29,767.74 1013.28,739.73 1021.76,739.79C1030.24,739.85 1033.52,751.35 1048.49,741.22C1061.31,732.54 1071.52,749.15 1093.82,753.72C1116.12,758.29 1125.15,760.13 1119.42,768.91Z" style="fill:rgb(253,197,16);fill-rule:nonzero;"/>
                    <path d="M975.5,677.93C978.4,684.68 980.48,691.8 983.99,698.26C988.92,707.34 996.9,716.18 995.28,726.38C994.68,730.2 993.16,735.13 996.46,737.14C998.92,738.64 1002.12,736.92 1004.04,734.77C1008.19,730.11 1010.07,723.08 1015.72,720.44C1020.77,718.08 1026.78,720.24 1032.25,719.2C1041.44,717.45 1047.23,707.18 1056.45,705.57C1056.27,702.97 1053.1,701.98 1050.72,700.92C1045.69,698.68 1042.48,693.77 1039.57,689.1C1029.09,672.29 1018.81,655.23 1011.49,636.83C1009.94,632.95 1008.52,628.98 1006.28,625.46C1004.29,622.31 1001.7,619.59 999,617.02C993.63,611.92 987.74,607.37 981.46,603.46C972.93,598.14 961.42,593.51 951.85,598.98C944.28,603.31 938.05,614.43 939.5,623.21C941.12,633.03 950.6,640.87 956.58,648.16C964.05,657.29 970.83,667.07 975.5,677.93Z" style="fill:rgb(75,54,157);fill-rule:nonzero;"/>
                </g>
                <g id="Leg">
                    <path d="M1084.24,603.5L1139.94,610.35L1139.53,629.55L1081.85,618.89C1081.85,618.88 1080.59,608.37 1084.24,603.5Z" style="fill:rgb(234,194,171);fill-rule:nonzero;"/>
                    <path d="M1180.47,546.62C1180.47,546.62 1181.02,561.01 1175.49,586.65C1169.96,612.29 1162.67,640.57 1157.52,644.59C1152.37,648.61 1120.32,642.75 1122.77,634.38C1125.22,626.01 1138.06,626.25 1131.78,608.38C1126.4,593.07 1146.49,588.01 1157.51,567.34C1168.54,546.67 1172.98,538.3 1180.47,546.62Z" style="fill:rgb(253,197,16);fill-rule:nonzero;"/>
                    <path d="M837.25,631.1C821.75,636.28 816.29,652.06 811.18,667.59C807.48,678.85 805.45,690.67 805.2,702.52C805.05,709.22 805.85,716.73 810.95,721.07C813.77,723.46 817.49,724.49 821.14,725.1C847.42,729.53 873.84,715.8 892.89,697.17C911.94,678.54 925.56,655.18 941.8,634.05C949.04,624.63 958.18,614.91 970.04,614.18C983.53,613.35 994.45,624.29 1006.57,630.26C1019.57,636.66 1034.04,640.34 1048.33,642.44C1063.08,644.6 1071.24,645.41 1085.39,651.07C1090.91,653.28 1096.75,661.33 1101.9,662.78C1117.34,667.13 1107.1,658.79 1109.27,654.82C1112.06,649.73 1114.4,641.3 1113.01,636.53C1110.6,628.3 1109.66,619.16 1109.99,610.6C1110.2,605.11 1114.77,601.2 1117.34,596.55C1122.49,585.31 1089.14,589.88 1075.39,589.3C1059.35,588.63 1043.59,584.89 1028.13,580.55C1010.79,575.68 993.66,570.03 976.83,563.62C964.63,558.98 951.78,553.84 938.93,556.09C921.38,559.16 909.35,574.73 896.71,587.28C882.06,601.83 872.43,609.96 853.34,617.82" style="fill:rgb(90,84,255);fill-rule:nonzero;"/>
                </g>
                <g id="Head">
                    <path id="Neck" d="M679.94,483.9L688.82,511.86L712.7,517.11L705.52,505.4C705.52,505.4 693.77,485.91 698.02,473.64C702.27,461.37 679.94,483.9 679.94,483.9Z" style="fill:rgb(212,167,154);fill-rule:nonzero;"/>
                    <path id="Face" d="M686.95,399.89C693.26,401.26 703.89,408.25 705.8,414.41C707.07,418.49 708.39,422.84 711.11,426.23C714.57,430.56 719.47,432.62 724,435.52C728.45,438.37 722.24,439.58 720.3,442.24C718.13,445.22 717.97,448.61 717.66,452.33C717.03,459.99 718.69,474.42 714.06,480.76C707.82,489.3 684.71,485.85 677.22,481.65C675.73,480.82 658.52,471.56 658.92,470.53L686.95,399.89Z" style="fill:rgb(234,194,171);fill-rule:nonzero;"/>
                    <g id="Hair">
                        <path d="M646.07,405.9C647.35,404.22 646.19,401.83 646.34,399.72C646.53,397.02 648.88,395.02 651.13,393.51C663.5,385.17 678.84,381.33 693.68,382.85C699.6,383.46 698.04,384.93 703.1,388.07C709.56,392.07 717.64,406.86 708.18,412.83C698.19,419.14 686.36,412.53 696.33,414.03C690.5,413.16 687.73,418.13 684.57,422.9C672.5,441.11 673.7,463.68 679.95,483.9C646.54,474.71 625.91,449.67 634.5,423.2C638.2,411.8 647.29,395.44 637.4,384.73C631.17,377.99 620.93,376.8 611.8,377.72C602.99,378.61 593.92,381.31 587.77,387.69C578.12,397.72 578.42,413.91 583.09,427.02C587.76,440.13 596.01,451.72 600.79,464.79C604.63,475.3 604.75,489.66 594.86,494.88C585.94,499.58 575.49,493.63 565.92,490.46C553.93,486.49 539.51,487.52 530.27,496.12C521.02,504.72 519.91,521.75 529.98,529.38C524.94,533.05 522.5,539.94 524.1,545.97C525.71,551.99 531.26,556.76 537.46,557.43C545.92,558.35 554.15,552.33 562.53,553.82C567.24,554.66 571.18,557.75 575.5,559.81C579.82,561.87 585.47,562.73 589,559.5C590.96,557.71 591.82,555.05 592.96,552.66C599.02,540.01 613.88,533.79 621.19,521.82C635.36,498.61 620.78,463.17 619.07,438.4C618.51,430.26 619.23,420.97 625.52,415.77C631.25,411.04 638.12,407.45 644.41,403.52C644.95,404.31 645.51,405.11 646.07,405.9Z" style="fill:rgb(75,54,157);fill-rule:nonzero;"/>
                    </g>
                    <path id="Ear" d="M679.04,448.41C679.04,448.41 664.68,444.63 666.11,455.66C667.54,466.69 681.29,468.31 681.29,468.31L677.78,455.41L679.04,448.41Z" style="fill:rgb(234,194,171);fill-rule:nonzero;"/>
                    <path id="Decoration" d="M648.95,395.19C648.95,395.19 652.47,397.05 650.28,402.35C648.09,407.66 637.64,419.78 637.09,416.06C636.54,412.34 629.05,415.39 632.48,410.08C635.91,404.77 635.13,406.54 638.92,400.48C642.56,394.66 638.41,392.18 640.56,389.78C644.33,385.59 647.22,393.05 648.95,395.19Z" style="fill:rgb(244,78,78);fill-rule:nonzero;"/>
                </g>
                <path id="Body" d="M719.6,505.01C739.52,510.69 736.88,511.85 751.92,526.1C764.69,538.21 781.83,565.43 788.45,581.74C792.63,592.04 805.38,601.86 811.19,611.36C816.01,619.24 829.34,616.42 833.83,624.51C834.48,625.67 835.15,626.87 836.2,627.68C838.09,629.14 833.25,632.03 835.52,632.79C838.23,633.7 845.06,645.09 846.53,647.54C849.41,652.37 845.68,647.28 845.36,652.93C844.93,660.52 847.03,662.75 843.2,668.29C838.38,675.26 836.38,683.71 834.45,691.83C832.81,698.75 832.13,708.02 827,713.27C821.99,718.4 814.22,719.9 807.08,719.32C792.9,718.16 778.6,710.68 769.61,699.63C758.79,686.32 757.52,668.78 748.83,654.48C740.87,641.38 728.86,631.58 719.85,619.3C710.41,606.43 704.38,591.56 698.36,576.89C691.45,560.06 682.5,544.94 683.91,526.08C684.55,517.55 686.72,508.73 692.47,502.41C698.23,496.1 711.38,502.67 719.6,505.01Z" style="fill:rgb(244,78,78);fill-rule:nonzero;"/>
                <g id="Arm">
                    <path d="M835.73,631.81C842.35,629.11 852.56,619.75 856.43,616.06C852.42,617.67 849.44,620.89 844.82,619.57C838.13,617.67 831.45,615.76 824.79,613.78C762.49,588.82 739.76,547.39 739.76,547.39C739.76,547.39 747.94,556.16 723.84,534.28C699.74,512.4 706.35,531.49 706.35,531.49C706.35,531.49 724.16,558.86 752.85,589.72C781.54,620.58 819.03,627.84 819.03,627.84C823.76,629.08 828.51,630.27 833.25,631.26C834.12,631.42 834.92,631.61 835.73,631.81Z" style="fill:rgb(234,194,171);fill-rule:nonzero;"/>
                    <path d="M748.21,538.46C748.21,538.46 713.12,486.59 697.63,507.77C682.14,528.95 730.8,578.66 730.8,578.66L755.73,543.54L748.21,538.46Z" style="fill:rgb(215,56,78);fill-rule:nonzero;"/>
                </g>
            </g>
        </g>
    </g>
    <g id="UI">
        <g id="Shopping_bag" transform="matrix(1.35063,0,0,1.35063,-303.999,-211.53)">
            <g>
                <path d="M853.47,367.28L852.04,363.81C848.63,355.53 847.8,346.71 849.71,338.98C851.73,330.83 856.51,324.84 863.19,322.08C876.54,316.58 893.28,326.34 900.5,343.84L901.93,347.3L853.47,367.28ZM871.21,328.01C869.44,328.01 867.7,328.33 866.05,329.02C861.64,330.84 858.42,335.02 856.99,340.79C855.72,345.91 855.99,351.71 857.71,357.43L891.97,343.31C887,333.94 878.78,328.01 871.21,328.01Z" style="fill:rgb(227,229,252);fill-rule:nonzero;"/>
            </g>
            <g>
                <path d="M852.27,356.61C844.33,359.88 839.92,367.64 842.48,373.84L861.64,458.73C864.2,464.93 872.79,467.33 880.73,464.06L939.53,439.83L881.77,344.45L852.27,356.61Z" style="fill:rgb(250,224,38);fill-rule:nonzero;"/>
                <path d="M956.36,419.7L912.09,345.15C909.53,338.95 900.94,336.55 893,339.82L881.76,344.45L939.52,439.83L946.56,436.93C954.51,433.66 958.92,425.9 956.36,419.7Z" style="fill:rgb(253,197,16);fill-rule:nonzero;"/>
            </g>
        </g>
        <g id="Element" transform="matrix(1.35063,0,0,1.35063,-303.999,-211.53)">
            <path d="M724.28,187.33L623.02,187.33C619.91,187.33 617.37,184.79 617.37,181.68L617.37,175.33C617.37,172.22 619.91,169.68 623.02,169.68L724.28,169.68C727.39,169.68 729.93,172.22 729.93,175.33L729.93,181.68C729.93,184.79 727.39,187.33 724.28,187.33Z" style="fill:rgb(227,229,252);fill-rule:nonzero;"/>
            <path d="M724.28,217.28L623.02,217.28C619.91,217.28 617.37,214.74 617.37,211.63L617.37,205.28C617.37,202.17 619.91,199.63 623.02,199.63L724.28,199.63C727.39,199.63 729.93,202.17 729.93,205.28L729.93,211.63C729.93,214.74 727.39,217.28 724.28,217.28Z" style="fill:rgb(227,229,252);fill-rule:nonzero;"/>
            <path d="M724.28,247.23L623.02,247.23C619.91,247.23 617.37,244.69 617.37,241.58L617.37,235.23C617.37,232.12 619.91,229.58 623.02,229.58L724.28,229.58C727.39,229.58 729.93,232.12 729.93,235.23L729.93,241.58C729.93,244.69 727.39,247.23 724.28,247.23Z" style="fill:rgb(227,229,252);fill-rule:nonzero;"/>
            <path d="M724.28,277.18L623.02,277.18C619.91,277.18 617.37,274.64 617.37,271.53L617.37,265.18C617.37,262.07 619.91,259.53 623.02,259.53L724.28,259.53C727.39,259.53 729.93,262.07 729.93,265.18L729.93,271.53C729.93,274.64 727.39,277.18 724.28,277.18Z" style="fill:rgb(227,229,252);fill-rule:nonzero;"/>
        </g>
        <g id="Shopping_Cart" transform="matrix(1.35063,0,0,1.35063,-303.999,-211.53)">
            <g>
                <path d="M603.43,722.22C590.77,722.22 580.41,711.86 580.41,699.2C580.41,686.54 590.77,676.18 603.43,676.18C616.09,676.18 626.45,686.54 626.45,699.2C626.45,711.86 616.09,722.22 603.43,722.22Z" style="fill:rgb(227,229,252);fill-rule:nonzero;"/>
                <g>
                    <g>
                        <path d="M621.33,673.17C618.88,673.17 616.32,672.69 613.73,671.72C608.01,669.57 602.79,665.23 599.04,659.49L596.99,656.35L631.19,634L633.24,637.14C641.22,649.36 640.03,664.31 630.6,670.46C627.86,672.26 624.69,673.17 621.33,673.17ZM607.57,658.38C610.11,661.3 613.14,663.49 616.36,664.7C620.19,666.14 623.8,665.96 626.51,664.19C631.65,660.83 632.45,652.36 628.8,644.52L607.57,658.38Z" style="fill:rgb(227,229,252);fill-rule:nonzero;"/>
                    </g>
                    <g>
                        <path d="M633.27,642.96C638.61,639.47 640.75,633.2 638.03,629.03L612.29,569.74C609.57,565.57 602.97,565.01 597.62,568.5L558.07,594.33L613.43,655.92L633.27,642.96Z" style="fill:rgb(167,173,255);fill-rule:nonzero;"/>
                        <path d="M548.57,611.34L591.2,659.6C593.92,663.77 600.52,664.33 605.87,660.84L613.43,655.91L558.07,594.32L553.34,597.41C547.99,600.9 545.85,607.17 548.57,611.34Z" style="fill:rgb(151,140,255);fill-rule:nonzero;"/>
                    </g>
                </g>
                <g>
                    <g>
                        <path d="M633.92,588.52L632.83,584.94C630.22,576.37 630.23,567.51 632.87,560C635.65,552.09 640.99,546.57 647.89,544.46C654.79,542.36 662.3,543.96 669.03,548.98C675.4,553.74 680.35,561.09 682.96,569.66L684.05,573.24L633.92,588.52ZM653.92,551.06C652.61,551.06 651.32,551.25 650.08,551.63C645.51,553.02 641.91,556.88 639.94,562.48C638.19,567.46 637.91,573.26 639.08,579.11L674.53,568.31C672.24,562.79 668.77,558.14 664.54,554.98C661.08,552.4 657.41,551.06 653.92,551.06Z" style="fill:rgb(227,229,252);fill-rule:nonzero;"/>
                    </g>
                    <g>
                        <path d="M633.74,577.78C625.52,580.28 620.4,587.58 622.35,594L633.36,680.33C635.32,686.75 643.64,689.95 651.86,687.45L712.7,668.92L664.26,568.49L633.74,577.78Z" style="fill:rgb(250,224,38);fill-rule:nonzero;"/>
                        <path d="M731.37,650.48L694.38,572.06C692.42,565.64 684.1,562.44 675.88,564.94L664.25,568.48L712.69,668.91L719.97,666.69C728.2,664.19 733.32,656.89 731.37,650.48Z" style="fill:rgb(253,197,16);fill-rule:nonzero;"/>
                    </g>
                </g>
                <path d="M769.87,771.35L610.23,771.35C597.57,771.35 587.21,760.99 587.21,748.33C587.21,735.67 597.57,725.31 610.23,725.31L769.87,725.31C782.53,725.31 792.89,735.67 792.89,748.33C792.89,760.99 782.53,771.35 769.87,771.35Z" style="fill:rgb(253,197,16);fill-rule:nonzero;"/>
                <path d="M725.2,720.01L654.89,720.01C642.23,720.01 631.87,709.65 631.87,696.99C631.87,684.33 642.23,673.97 654.89,673.97L725.2,673.97C737.86,673.97 748.22,684.33 748.22,696.99C748.23,709.65 737.86,720.01 725.2,720.01Z" style="fill:rgb(151,140,255);fill-rule:nonzero;"/>
                <path d="M877.13,770.62L828.21,770.62C815.55,770.62 805.19,760.26 805.19,747.6C805.19,734.94 815.55,724.58 828.21,724.58L877.13,724.58C889.79,724.58 900.15,734.94 900.15,747.6C900.16,760.26 889.8,770.62 877.13,770.62Z" style="fill:rgb(167,173,255);fill-rule:nonzero;"/>
            </g>
            <g id="Shoping_Cart">
                <g id="wheel1">
                    <g>
                        <circle cx="849.85" cy="963.92" r="24.13" style="fill:rgb(75,54,157);"/>
                    </g>
                    <circle cx="849.85" cy="963.92" r="17.06" style="fill:rgb(227,229,252);"/>
                    <g transform="matrix(0.740395,0,0,0.740395,145.466,170.126)">
                        <rect x="947" y="1044" width="9.377" height="51.164" style="fill:rgb(75,54,157);"/>
                    </g>
                    <g transform="matrix(4.53361e-17,-0.740395,-0.740395,-4.53361e-17,1642,1668.26)">
                        <rect x="947" y="1044" width="9.377" height="51.164" style="fill:rgb(75,54,157);"/>
                    </g>
                </g>
                <g id="wheel2" transform="matrix(1,0,0,1,-170.96,-0.281233)">
                    <g>
                        <circle cx="849.85" cy="963.92" r="24.13" style="fill:rgb(75,54,157);"/>
                    </g>
                    <circle cx="849.85" cy="963.92" r="17.06" style="fill:rgb(227,229,252);"/>
                    <g transform="matrix(0.740395,0,0,0.740395,145.466,170.126)">
                        <rect x="947" y="1044" width="9.377" height="51.164" style="fill:rgb(75,54,157);"/>
                    </g>
                    <g transform="matrix(4.53361e-17,-0.740395,-0.740395,-4.53361e-17,1642,1668.26)">
                        <rect x="947" y="1044" width="9.377" height="51.164" style="fill:rgb(75,54,157);"/>
                    </g>
                </g>
                <g>
                    <g>
                        <path d="M654.56,932.29C650.8,932.29 608.42,931.52 599.8,897.66C596.57,884.98 589.41,845.82 581.13,800.47C569.4,736.28 553.33,648.36 548.27,638.76C540.51,624.04 533.79,621.14 508.53,621.59C483.12,622.02 389.33,621.56 388.38,621.55L388.42,614.06C389.36,614.06 483.06,614.53 508.4,614.1C534.27,613.68 545.16,616.79 554.9,635.27C560.09,645.13 572.1,709.4 588.5,799.12C596.76,844.33 603.9,883.37 607.06,895.81C614.46,924.88 654.31,924.78 654.73,924.8L900.16,924.8L900.16,932.29L654.56,932.29Z" style="fill:rgb(75,54,157);fill-rule:nonzero;"/>
                    </g>
                    <g>
                        <g>
                            <path d="M909.21,776.92L580.75,776.92L580.75,769.43L903.42,769.43L936.37,643.37L552.63,643.37L552.63,635.88L946.08,635.88L909.21,776.92Z" style="fill:rgb(75,54,157);fill-rule:nonzero;"/>
                        </g>
                        <g transform="matrix(0.9679,-0.2512,0.2512,0.9679,-156.217,188.806)">
                            <rect x="657.82" y="637.41" width="7.49" height="137.97" style="fill:rgb(75,54,157);"/>
                        </g>
                        <g>
                            <rect x="743.18" y="639.63" width="7.49" height="130.99" style="fill:rgb(75,54,157);"/>
                        </g>
                        <g transform="matrix(0.251,-0.968,0.968,0.251,-60.0511,1335.19)">
                            <rect x="763.8" y="702.65" width="137.97" height="7.49" style="fill:rgb(75,54,157);"/>
                        </g>
                        <g>
                            <rect x="564.19" y="680.55" width="362.77" height="7.49" style="fill:rgb(75,54,157);"/>
                        </g>
                        <g>
                            <rect x="572.83" y="725.52" width="344.96" height="7.49" style="fill:rgb(75,54,157);"/>
                        </g>
                    </g>
                </g>
            </g>
        </g>
    </g>
</svg>
